<svg width="22" height="22" viewBox="0 0 22 22" fill="none" xmlns="http://www.w3.org/2000/svg">
<path fill-rule="evenodd" clip-rule="evenodd" d="M21.1904 9.48941C22.27 8.41254 22.27 6.66659 21.1904 5.58972C20.1108 4.51286 18.3604 4.51286 17.2807 5.58973L11.8568 10.9999L17.2807 16.41C18.3604 17.4868 20.1108 17.4868 21.1904 16.41C22.27 15.3331 22.27 13.5872 21.1904 12.5103L19.6761 10.9999L21.1904 9.48941ZM19.6622 7.96516C19.8978 7.73014 19.8978 7.34911 19.6622 7.11409C19.4266 6.87908 19.0446 6.87908 18.8089 7.11409L14.9132 10.9999L18.8089 14.8857C19.0446 15.1207 19.4266 15.1207 19.6622 14.8857C19.8978 14.6507 19.8978 14.2697 19.6622 14.0347L16.6197 10.9999L19.6622 7.96516Z" fill="#003835"/>
<path fill-rule="evenodd" clip-rule="evenodd" d="M12.5425 21.1923C13.6221 22.2692 15.3725 22.2692 16.4521 21.1923C17.5317 20.1155 17.5317 18.3695 16.4521 17.2927L11.0282 11.8825L5.60418 17.2927C4.52456 18.3695 4.52456 20.1155 5.60418 21.1923C6.68381 22.2692 8.43422 22.2692 9.51385 21.1923L11.0282 19.6819L12.5425 21.1923ZM14.0709 19.6681C14.3065 19.9031 14.6885 19.9031 14.9241 19.6681C15.1597 19.433 15.1597 19.052 14.9241 18.817L11.0284 14.9312L7.1326 18.817C6.89698 19.052 6.89698 19.433 7.1326 19.6681C7.36822 19.9031 7.75023 19.9031 7.98584 19.6681L11.0284 16.6333L14.0709 19.6681Z" fill="#007569"/>
<path fill-rule="evenodd" clip-rule="evenodd" d="M0.809718 9.54613C-0.269906 8.46927 -0.269906 6.72332 0.809718 5.64645C1.88934 4.56958 3.63976 4.56958 4.71938 5.64645L10.1434 11.0566L4.71938 16.4667C3.63976 17.5436 1.88934 17.5436 0.809718 16.4667C-0.269906 15.3898 -0.269906 13.6439 0.809718 12.567L2.32402 11.0566L0.809718 9.54613ZM2.33793 8.02187C2.10231 7.78685 2.10231 7.40582 2.33793 7.1708C2.57354 6.93579 2.95555 6.93579 3.19117 7.1708L7.08693 11.0566L3.19117 14.9424C2.95555 15.1775 2.57354 15.1775 2.33793 14.9424C2.10231 14.7074 2.10231 14.3264 2.33793 14.0914L5.38044 11.0566L2.33793 8.02187Z" fill="#FF7866"/>
<path fill-rule="evenodd" clip-rule="evenodd" d="M12.5426 0.807651C13.6222 -0.269217 15.3726 -0.269217 16.4522 0.807652C17.5319 1.88452 17.5319 3.63047 16.4522 4.70734L11.0283 10.1175L5.6043 4.70733C4.52468 3.63047 4.52468 1.88452 5.60431 0.80765C6.68393 -0.269218 8.43435 -0.269218 9.51397 0.807651L11.0283 2.31809L12.5426 0.807651ZM14.071 2.33196C14.3066 2.09694 14.6886 2.09694 14.9242 2.33196C15.1599 2.56698 15.1599 2.94801 14.9242 3.18303L11.0285 7.06885L7.13272 3.18303C6.8971 2.94801 6.8971 2.56698 7.13272 2.33196C7.36834 2.09694 7.75035 2.09694 7.98597 2.33196L11.0285 5.36671L14.071 2.33196Z" fill="#FFBE41"/>
</svg>
