<svg width="22" height="22" viewBox="0 0 22 22" fill="none" xmlns="http://www.w3.org/2000/svg">
<path d="M19.8824 2L3.11768 2L3.11768 10.4704L18.3384 10.4704L19.8824 11.9648L19.8824 2Z" fill="#9DE8CC"/>
<path d="M6.70066 6.79142L6.70066 7.81145C6.70066 8.42325 6.38835 8.72596 5.75713 8.72596H5.56798C4.93676 8.72596 4.62445 8.42325 4.62445 7.81145L4.62445 4.63198C4.62445 4.02017 4.93676 3.71747 5.56798 3.71747L5.75713 3.71747C6.38065 3.71747 6.68526 4.01271 6.68526 4.61706L6.68526 5.50279L6.12002 5.50279L6.12002 4.6032C6.12002 4.35059 5.99686 4.23015 5.73513 4.23015H5.58997C5.32825 4.23015 5.20508 4.34952 5.20508 4.6032L5.20508 7.83809C5.20508 8.09177 5.32825 8.21115 5.58997 8.21115H5.74943C6.01115 8.21115 6.13432 8.09177 6.13432 7.83809L6.13432 6.79035L6.70066 6.79035V6.79142Z" fill="#1A273D"/>
<path d="M9.13073 5.90431L9.13073 3.7598L9.71137 3.7598L9.71137 8.68195H9.13073L9.13073 6.43191L8.1872 6.43191L8.1872 8.68195H7.60657L7.60657 3.7598L8.1872 3.7598L8.1872 5.90431L9.13073 5.90431Z" fill="#1A273D"/>
<path d="M12.1472 8.68207L12.024 7.85923L11.0882 7.85923L10.9716 8.68207H10.413L11.197 3.74606L11.9371 3.74606L12.7201 8.68207H12.1472ZM11.1608 7.35294L11.9514 7.35294L11.5522 4.62433L11.1608 7.35294Z" fill="#1A273D"/>
<path d="M14.098 3.7598L14.098 8.16181L15.3714 8.16181V8.68195L13.5184 8.68195L13.5184 3.7598L14.098 3.7598Z" fill="#1A273D"/>
<path d="M17.6191 8.68195L16.614 6.26351L16.614 8.68195H16.0334L16.0334 3.7598L16.614 3.7598L16.614 6.14307L17.6697 3.7598L18.2866 3.7598L17.2002 6.17824L18.257 8.68195H17.6191Z" fill="#1A273D"/>
<path fill-rule="evenodd" clip-rule="evenodd" d="M3.11768 11.0354L18.0822 11.0354L19.8824 12.7546L19.8824 19.5058L4.66163 19.5058L3.11768 21.0001L3.11768 11.0354ZM6.77431 16.8026L6.77431 15.9734C6.77431 15.5375 6.61485 15.3126 6.31794 15.2006C6.60715 15.0951 6.76001 14.8702 6.76001 14.4343L6.76001 13.7095C6.76001 13.0977 6.4477 12.795 5.81648 12.795L4.66181 12.795L4.66181 17.7171L5.83078 17.7171C6.46199 17.7171 6.77431 17.4144 6.77431 16.8026ZM5.23475 13.3013L5.80218 13.3013C6.06391 13.3013 6.18707 13.4217 6.18597 13.6743L6.18597 14.5387C6.18597 14.8201 6.04851 14.9534 5.7582 14.9534L5.23475 14.9534L5.23475 13.3013ZM5.81648 17.2109L5.23585 17.2109L5.23585 15.4532L5.77359 15.4532C6.06391 15.4532 6.20137 15.5865 6.20137 15.8679L6.20137 16.8378C6.20137 17.0915 6.0782 17.2109 5.81648 17.2109ZM8.81284 17.7595H8.5951C7.96388 17.7595 7.65157 17.4568 7.65157 16.845L7.65157 13.6666C7.65157 13.0548 7.96388 12.7521 8.5951 12.7521H8.81284C9.44406 12.7521 9.75637 13.0548 9.75637 13.6666L9.75637 16.845C9.75527 17.4568 9.44406 17.7595 8.81284 17.7595ZM8.79084 13.2659H8.61709C8.35537 13.2659 8.2322 13.3852 8.2322 13.6389L8.2322 16.8738C8.2322 17.1275 8.35537 17.2469 8.61709 17.2469H8.79084C9.05257 17.2469 9.17573 17.1275 9.17573 16.8738L9.17573 13.6389C9.17573 13.3863 9.05147 13.2659 8.79084 13.2659ZM12.024 16.8939L12.1471 17.7167H12.7201L11.9371 12.7807H11.197L10.4129 17.7167H10.9716L11.0882 16.8939L12.024 16.8939ZM11.9514 16.3886L11.1607 16.3886L11.5522 13.66L11.9514 16.3886ZM15.4289 16.0692L15.4289 17.7288H14.8483L14.8483 16.0905C14.8483 15.7953 14.7108 15.6621 14.4062 15.6621H13.9784L13.9784 17.7298H13.3978L13.3978 12.8077L14.4788 12.8077C15.11 12.8077 15.4223 13.1104 15.4223 13.7222L15.4223 14.6367C15.4223 15.0801 15.2629 15.2975 14.9725 15.4105C15.2904 15.4926 15.4289 15.6898 15.4289 16.0692ZM14.4568 13.3204H13.9784L13.9784 15.1622H14.4139C14.7042 15.1622 14.8417 15.0289 14.8417 14.7475L14.8417 13.6923C14.8406 13.4397 14.7174 13.3204 14.4568 13.3204ZM17.2255 12.795L16.2754 12.795L16.2754 17.7182L17.2255 17.7182C17.9876 17.7182 18.3505 17.3665 18.3505 16.6278L18.3505 13.8854C18.3505 13.1467 17.9876 12.795 17.2255 12.795ZM17.1958 17.2045L16.8549 17.2045L16.8549 13.3098H17.1958C17.5873 13.3098 17.7688 13.4995 17.7688 13.879L17.7688 16.6353C17.7688 17.0147 17.5873 17.2045 17.1958 17.2045Z" fill="#1A273D"/>
</svg>
