<svg width="22" height="22" viewBox="0 0 22 22" fill="none" xmlns="http://www.w3.org/2000/svg">
<g clip-path="url(#clip0_1596_4932)">
<path d="M11.8594 10.3548C11.7377 10.2851 11.616 10.1979 11.4942 10.1281C11.4595 10.1106 11.4247 10.0932 11.4073 10.0758C11.4073 10.0758 11.4247 10.0758 11.4247 10.0583L11.5464 9.93622C11.5638 9.95366 11.5812 9.97111 11.5812 9.98855C11.5986 10.0234 11.6333 10.0409 11.6507 10.0758C11.6681 10.0932 11.6681 10.0932 11.6855 10.1106C11.7377 10.163 11.7724 10.2327 11.8246 10.2851C11.8246 10.3025 11.842 10.3374 11.8594 10.3548Z" fill="url(#paint0_linear_1596_4932)"/>
<path d="M19.8923 14.4187C19.8053 15.8142 18.5359 16.9305 17.1622 17.1398C15.7885 17.3491 14.38 16.8084 13.2846 15.9537C13.1802 15.8665 13.0759 15.7967 12.9716 15.7095C12.9368 15.6746 12.902 15.6572 12.8672 15.6223C12.8325 15.6048 12.8151 15.57 12.7803 15.5525C12.5368 15.3432 12.3108 15.1164 12.0847 14.8897C12.05 14.8548 12.0152 14.8199 11.9978 14.785C11.9109 14.6978 11.8413 14.6106 11.7544 14.5234C11.7022 14.4711 11.6674 14.4187 11.6152 14.3664L11.5805 14.3315C11.5283 14.2792 11.4761 14.2269 11.4414 14.1571L11.424 14.1396C11.3718 14.0873 11.3196 14.0175 11.2675 13.9652L11.2501 13.9478C11.2327 13.9303 11.2153 13.8954 11.1979 13.878C11.1631 13.8431 11.1284 13.8082 11.111 13.7733C10.9893 13.6164 10.8501 13.4594 10.7284 13.3024C10.6763 13.2501 10.6241 13.1803 10.5893 13.128C10.5371 13.0756 10.5024 13.0059 10.4502 12.9535C10.4328 12.9186 10.398 12.9012 10.3806 12.8663C10.2415 12.7093 10.1198 12.5349 9.98071 12.3779C9.85899 12.2384 9.73727 12.0814 9.63293 11.9419C9.65032 11.9244 9.66771 11.907 9.6851 11.8895C9.71988 11.8546 9.75466 11.8198 9.78943 11.8023C9.80682 11.7849 9.82421 11.7674 9.8416 11.75C9.87638 11.7151 9.89376 11.6977 9.92854 11.6628C9.96332 11.6279 9.9981 11.593 10.0329 11.5581C10.0503 11.5407 10.0677 11.5232 10.085 11.5058C10.1024 11.4883 10.1198 11.4709 10.1198 11.4709L10.1372 11.4535C10.1894 11.4186 10.2241 11.3662 10.2589 11.3314C10.3111 11.279 10.3459 11.2441 10.398 11.1918C10.398 11.1918 10.398 11.1918 10.4154 11.1744C10.4328 11.1395 10.4676 11.122 10.485 11.1046C10.5024 11.0872 10.5198 11.0697 10.5198 11.0697C10.5371 11.0523 10.5545 11.0348 10.5719 11.0174C10.6241 10.9651 10.6589 10.9302 10.6936 10.8778C10.7806 10.7732 10.8675 10.686 10.9719 10.5813C10.9893 10.5639 11.0066 10.5464 11.024 10.529C11.0414 10.5115 11.0762 10.4767 11.0936 10.4592C11.1458 10.3894 11.2153 10.3371 11.2675 10.2673C11.3196 10.215 11.3544 10.1801 11.3892 10.1278C11.3892 10.1278 11.4066 10.1278 11.4066 10.1104L11.5283 9.98826C11.5457 10.0057 11.5631 10.0231 11.5631 10.0406C11.5805 10.0755 11.6152 10.0929 11.6326 10.1278C11.65 10.1452 11.65 10.1452 11.6674 10.1627C11.7196 10.215 11.7544 10.2848 11.8065 10.3371C11.8239 10.3546 11.8413 10.3894 11.8587 10.4069C12.1195 10.7209 12.363 11.0523 12.6238 11.3662C12.7629 11.5407 12.9194 11.7151 13.0759 11.8895C13.1802 12.0116 13.3019 12.1337 13.4063 12.2558C13.4932 12.343 13.5802 12.4477 13.6671 12.5349C14.2062 13.0931 14.8148 13.5989 15.4581 14.035C16.1015 14.4536 16.8145 14.785 17.5448 14.9595C17.8404 15.0292 18.1534 15.0816 18.449 15.099L18.4664 15.099C19.0402 15.0641 19.6836 14.9246 19.8923 14.4187Z" fill="url(#paint1_linear_1596_4932)"/>
<path d="M18.4838 15.0465C15.1799 17.3316 12.3456 15.0291 11.5979 14.3314C11.5109 14.2442 11.4587 14.1918 11.4414 14.1744L11.424 14.157C11.3718 14.1046 11.3196 14.0349 11.2675 13.9825L11.2501 13.9651C11.2327 13.9476 11.2153 13.9128 11.1979 13.8953C11.1631 13.8604 11.1284 13.8256 11.111 13.7907C10.9893 13.6337 10.8501 13.4767 10.7284 13.3197C10.6763 13.2674 10.6241 13.1976 10.5893 13.1453C10.5371 13.093 10.5024 13.0232 10.4502 12.9709C10.4328 12.936 10.398 12.9185 10.3806 12.8836C10.2415 12.7267 10.1198 12.5522 9.98071 12.3952C9.85899 12.2557 9.73727 12.0987 9.63293 11.9592C9.65032 11.9417 9.66771 11.9243 9.6851 11.9068C9.71988 11.872 9.75466 11.8371 9.78943 11.8196C9.80682 11.8022 9.82421 11.7847 9.8416 11.7673C9.87638 11.7324 9.89376 11.715 9.92854 11.6801C9.96332 11.6452 9.9981 11.6103 10.0329 11.5754C10.0503 11.558 10.0677 11.5405 10.085 11.5231C10.1024 11.5057 10.1198 11.4882 10.1198 11.4882L10.1372 11.4708C10.1894 11.4359 10.2242 11.3836 10.2589 11.3487C10.3111 11.2963 10.3459 11.2615 10.398 11.2091C10.398 11.2091 10.398 11.2091 10.4154 11.1917C10.4328 11.1568 10.4676 11.1394 10.485 11.1219C10.5024 11.1045 10.5198 11.087 10.5198 11.087C10.5371 11.0696 10.5545 11.0521 10.5719 11.0347C10.6241 10.9824 10.6589 10.9475 10.6936 10.8952C10.7806 10.7905 10.8675 10.7033 10.9719 10.5986C10.9893 10.5812 11.0066 10.5637 11.024 10.5463C11.0414 10.5289 11.0762 10.494 11.0936 10.4765C11.1458 10.4068 11.2153 10.3544 11.2675 10.2847C11.3196 10.2323 11.3544 10.1974 11.3892 10.1451C11.3892 10.1451 11.4066 10.1451 11.4066 10.1277L11.5283 10.0056C11.5457 10.023 11.5631 10.0405 11.5631 10.0579C11.5805 10.0928 11.6152 10.1102 11.6326 10.1451C11.65 10.1626 11.65 10.1626 11.6674 10.18C11.7196 10.2323 11.7544 10.3021 11.8065 10.3544C11.8239 10.3719 11.8413 10.4068 11.8587 10.4242C12.1195 10.7382 12.363 11.0696 12.6238 11.3836C12.7629 11.558 12.9194 11.7324 13.0759 11.9068C13.1802 12.0289 13.3019 12.151 13.4063 12.2731C13.4932 12.3604 13.5802 12.465 13.6671 12.5522C14.2062 13.1104 14.8148 13.6162 15.4581 14.0523C16.1015 14.4709 16.8145 14.8023 17.5448 14.9768C17.8578 14.9768 18.1708 15.0291 18.4838 15.0465Z" fill="url(#paint2_linear_1596_4932)"/>
<path d="M15.4927 14.0001C14.4667 13.9478 13.5625 13.5641 12.6757 13.1106C12.5192 13.0408 12.3801 12.9536 12.2236 12.8838C12.1193 12.8315 12.0149 12.7791 11.928 12.7268C11.8932 12.7094 11.8758 12.6919 11.841 12.6745C11.4411 12.4477 11.0585 12.221 10.7108 11.9593C10.5021 11.8024 10.2934 11.6454 10.0848 11.4709C10.1022 11.4535 10.1196 11.4361 10.1196 11.4361L10.1369 11.4186C10.1891 11.3837 10.2239 11.3314 10.2587 11.2965C10.3108 11.2442 10.3456 11.2093 10.3978 11.157C10.3978 11.157 10.3978 11.157 10.4152 11.1395C10.4326 11.1046 10.4673 11.0872 10.4847 11.0698C10.5021 11.0523 10.5195 11.0349 10.5195 11.0349C10.5369 11.0174 10.5543 11 10.5717 10.9825C10.6238 10.9302 10.6586 10.8953 10.6934 10.843C10.7803 10.7383 10.8673 10.6511 10.9716 10.5465C10.989 10.529 11.0064 10.5116 11.0238 10.4941C11.0412 10.4767 11.0759 10.4418 11.0933 10.4244C11.1455 10.3546 11.215 10.3023 11.2672 10.2325C11.3194 10.1802 11.3542 10.1453 11.3889 10.093C11.3889 10.093 11.4063 10.093 11.4063 10.0755L11.528 9.95341C11.5454 9.97086 11.5628 9.9883 11.5628 10.0057C11.5802 10.0406 11.615 10.0581 11.6324 10.093C11.6498 10.1104 11.6498 10.1104 11.6671 10.1278C11.9801 10.529 12.3105 10.9302 12.6409 11.314C12.78 11.4884 12.9365 11.6628 13.093 11.8372C13.1974 11.9593 13.3191 12.0814 13.4234 12.2035C14.0494 12.8838 14.7102 13.4943 15.4927 14.0001Z" fill="url(#paint3_linear_1596_4932)"/>
<path d="M9.59832 11.2441L9.56355 11.279L9.4766 11.3662L9.44183 11.4011C9.40705 11.436 9.38966 11.4534 9.33749 11.4883L9.3201 11.5058C9.26794 11.4534 9.21577 11.3837 9.16361 11.3313C8.79844 10.8953 8.3985 10.4766 7.99856 10.0929C7.54646 9.65684 7.07696 9.23821 6.57269 8.87191C6.29447 8.6626 5.99886 8.47073 5.70325 8.31374C5.68587 8.2963 5.66848 8.2963 5.65109 8.27886C5.33809 8.12187 5.00771 7.98233 4.65993 7.89511C4.64254 7.89511 4.62516 7.89511 4.62516 7.87767C4.22522 7.79046 3.82527 7.77301 3.42533 7.84279C3.39056 7.84279 3.37317 7.86023 3.33839 7.86023C3.321 7.86023 3.30361 7.87767 3.26884 7.87767C3.25145 7.87767 3.23406 7.87767 3.21667 7.89511C3.19928 7.89511 3.1645 7.91256 3.14712 7.91256C3.12973 7.91256 3.11234 7.93 3.09495 7.93C3.07756 7.93 3.06017 7.94744 3.04278 7.94744C3.02539 7.94744 3.00801 7.96488 2.99062 7.96488C2.97323 7.96488 2.95584 7.98233 2.92106 7.99977C2.90367 7.99977 2.88629 8.01721 2.8689 8.03466C2.85151 8.0521 2.83412 8.0521 2.81673 8.06954C2.78195 8.08698 2.76456 8.10443 2.72979 8.12187C2.7124 8.12187 2.7124 8.13931 2.69501 8.13931C2.67762 8.15676 2.66023 8.15676 2.64284 8.1742C2.62545 8.19164 2.60807 8.19164 2.59068 8.20908C2.57329 8.20908 2.57329 8.22653 2.5559 8.22653C2.53851 8.22653 2.53851 8.24397 2.52112 8.24397C2.48634 8.26141 2.45157 8.2963 2.41679 8.31374C2.3994 8.33118 2.3994 8.33118 2.38201 8.34863C2.36462 8.36607 2.36462 8.36607 2.34724 8.38351L2.26029 8.47073C2.2429 8.48817 2.20813 8.50561 2.19074 8.52305L2.10379 8.61027L2.0864 8.62771C2.06902 8.64515 2.06902 8.64515 2.05163 8.6626C2.03424 8.68004 2.03424 8.69748 2.01685 8.69748C2.01685 8.69748 2.01685 8.69748 1.99946 8.71493L1.96468 8.74981L1.94729 8.7847C1.92991 8.80214 1.92991 8.81958 1.91252 8.83702C1.89513 8.85447 1.89513 8.87191 1.87774 8.88935C1.86035 8.9068 1.84296 8.92424 1.84296 8.94168C1.82557 8.97657 1.80819 8.99401 1.7908 9.0289C1.77341 9.06378 1.75602 9.08122 1.73863 9.11611C1.72124 9.13355 1.70385 9.16844 1.68646 9.18588L1.66908 9.20332C1.65169 9.22077 1.6343 9.25565 1.6343 9.27309C1.61691 9.30798 1.59952 9.32542 1.58213 9.36031L1.58213 9.37775C1.56474 9.39519 1.56474 9.43008 1.54735 9.44752C1.52997 9.48241 1.51258 9.49985 1.51258 9.53474C1.49519 9.55218 1.49519 9.58707 1.4778 9.60451C1.4778 9.62195 1.4778 9.62195 1.46041 9.63939C1.46041 9.65684 1.44302 9.65684 1.44302 9.67428C1.44302 9.69172 1.42563 9.70916 1.42563 9.70916C1.42563 9.72661 1.40825 9.74405 1.40825 9.76149C1.40825 9.77894 1.40825 9.77894 1.39086 9.79638C1.39086 9.81382 1.37347 9.84871 1.37347 9.86615C1.37347 9.86615 1.37347 9.86615 1.37347 9.88359C1.37347 9.90104 1.35608 9.91848 1.35608 9.93592C1.35608 9.95336 1.35608 9.97081 1.33869 9.98825C1.33869 10.0231 1.3213 10.0406 1.3213 10.0755C1.21697 10.4243 1.19958 10.7557 1.19958 11.0697C1.19958 11.122 1.19958 11.1744 1.19958 11.2267C1.19958 11.279 1.19958 11.3139 1.21697 11.3662C1.23436 11.5058 1.25175 11.6628 1.28652 11.8023C1.30391 11.8895 1.3213 11.9942 1.35608 12.0814C1.37347 12.1337 1.39086 12.186 1.40825 12.2384C1.42563 12.3256 1.46041 12.4128 1.4778 12.5C1.56474 12.7268 1.65169 12.9535 1.75602 13.1628L1.75602 13.1803C1.73863 13.1628 1.72124 13.1454 1.72124 13.128L1.70385 13.1105L1.68646 13.0931C1.66908 13.0756 1.65169 13.0582 1.65169 13.0233C1.6343 12.9884 1.59952 12.9535 1.58213 12.9186C1.23436 12.3605 0.990916 11.6453 0.869195 10.8778C0.869195 10.8429 0.851807 10.8081 0.851807 10.7732C0.851807 10.7732 0.851807 10.7732 0.851807 10.7557C0.851807 10.7383 0.851807 10.7034 0.851807 10.686C0.851807 10.6685 0.851807 10.6336 0.851807 10.6162C0.851807 10.5987 0.851807 10.5639 0.851807 10.5464C0.851807 10.5115 0.851807 10.4766 0.851807 10.4418C0.851807 10.4069 0.851807 10.372 0.851807 10.3371C0.851807 9.63939 0.990916 8.95912 1.30391 8.33118C2.27768 6.30782 4.76426 5.03449 6.90308 5.88919C7.11174 5.97641 7.3204 6.06362 7.51168 6.18572C7.58123 6.22061 7.65079 6.25549 7.70296 6.29038C7.75512 6.32526 7.80729 6.3427 7.85945 6.37759C7.85945 6.37759 7.85945 6.37759 7.87684 6.37759C7.89423 6.37759 7.91162 6.39503 7.92901 6.41248C7.92901 6.37759 7.96379 6.39503 7.99856 6.42992C8.03334 6.44736 8.05073 6.4648 8.08551 6.48225C8.12028 6.49969 8.15506 6.53458 8.18984 6.55202C8.22462 6.56946 8.25939 6.60435 8.29417 6.62179C8.32895 6.63923 8.36373 6.67412 8.3985 6.69156C8.43328 6.709 8.46806 6.74389 8.50284 6.76133C8.64195 6.86599 8.76367 6.97065 8.90278 7.0753C9.0245 7.17996 9.16361 7.30206 9.28533 7.40672C9.37227 7.49393 9.45921 7.5637 9.54616 7.65091C9.58094 7.6858 9.59832 7.70324 9.6331 7.73813C9.66788 7.75557 9.68527 7.79046 9.70266 7.8079C9.75482 7.86023 9.7896 7.91256 9.84177 7.94744C9.85915 7.96488 9.89393 7.99977 9.91132 8.01721C9.92871 8.03466 9.9461 8.06954 9.98088 8.08698C10.0157 8.12187 10.033 8.13931 10.0678 8.1742C10.0678 8.1742 10.0852 8.19164 10.0852 8.20908C10.433 8.59283 10.7808 8.99401 11.1111 9.39519C11.1459 9.43008 11.1807 9.48241 11.2155 9.51729L11.1807 9.55218C11.1633 9.56962 11.1459 9.58706 11.1459 9.58706L10.9894 9.74405C10.972 9.76149 10.972 9.77894 10.9546 9.77894C10.9373 9.79638 10.9199 9.81382 10.9199 9.81382C10.8503 9.88359 10.7981 9.93592 10.746 10.0057L10.6764 10.0755C10.659 10.0929 10.659 10.0929 10.6416 10.1278L10.3634 10.4069C10.3286 10.4418 10.2765 10.4941 10.2417 10.529L10.2243 10.5464C10.2069 10.5639 10.2069 10.5813 10.1895 10.5813C10.1722 10.5987 10.1548 10.6162 10.1374 10.6336C10.12 10.6511 10.0852 10.686 10.0678 10.7034C10.0157 10.7557 9.98088 10.8081 9.92871 10.8429C9.89393 10.8778 9.85915 10.9127 9.80699 10.965L9.77221 10.9999L9.77221 11.0174L9.75482 11.0348L9.73743 11.0523L9.72005 11.0697L9.70266 11.0871L9.59832 11.2441Z" fill="url(#paint4_linear_1596_4932)"/>
<path d="M9.59832 11.2441L9.56355 11.279L9.4766 11.3662L9.44183 11.4011C9.40705 11.436 9.38966 11.4534 9.33749 11.4883L9.3201 11.5058C9.26794 11.4534 9.21577 11.3837 9.16361 11.3313C8.79844 10.8953 8.3985 10.4766 7.99856 10.0929C7.54646 9.65684 7.07696 9.23821 6.57269 8.87191C6.29447 8.6626 5.99886 8.47073 5.70325 8.31374C5.68587 8.2963 5.66848 8.2963 5.65109 8.27886C5.33809 8.12187 5.00771 7.98233 4.65993 7.89511C4.64254 7.89511 4.62516 7.89511 4.62516 7.87767C4.22522 7.79046 3.82527 7.77301 3.42533 7.84279C3.39056 7.84279 3.37317 7.86023 3.33839 7.86023C3.321 7.86023 3.30361 7.87767 3.26884 7.87767C3.25145 7.87767 3.23406 7.87767 3.21667 7.89511C3.19928 7.89511 3.1645 7.91256 3.14712 7.91256C3.12973 7.91256 3.11234 7.93 3.09495 7.93C3.07756 7.93 3.06017 7.94744 3.04278 7.94744C3.02539 7.94744 3.00801 7.96488 2.99062 7.96488C2.97323 7.96488 2.95584 7.98233 2.92106 7.99977C2.90367 7.99977 2.88629 8.01721 2.8689 8.03466C2.85151 8.0521 2.83412 8.0521 2.81673 8.06954C2.78195 8.08698 2.76456 8.10443 2.72979 8.12187C2.7124 8.12187 2.7124 8.13931 2.69501 8.13931C2.67762 8.15676 2.66023 8.15676 2.64284 8.1742C2.62545 8.19164 2.60807 8.19164 2.59068 8.20908C2.57329 8.20908 2.57329 8.22653 2.5559 8.22653C2.53851 8.22653 2.53851 8.24397 2.52112 8.24397C2.48634 8.26141 2.45157 8.2963 2.41679 8.31374C2.3994 8.33118 2.3994 8.33118 2.38201 8.34863C2.36462 8.36607 2.36462 8.36607 2.34724 8.38351L2.26029 8.47073C2.2429 8.48817 2.20813 8.50561 2.19074 8.52305L2.10379 8.61027L2.0864 8.62771C2.06902 8.64515 2.06902 8.64515 2.05163 8.6626C2.03424 8.68004 2.03424 8.69748 2.01685 8.69748C2.01685 8.69748 2.01685 8.69748 1.99946 8.71493L1.96468 8.74981L1.94729 8.7847C1.92991 8.80214 1.92991 8.81958 1.91252 8.83702C1.89513 8.85447 1.89513 8.87191 1.87774 8.88935C1.86035 8.9068 1.84296 8.92424 1.84296 8.94168C1.82557 8.97657 1.80819 8.99401 1.7908 9.0289C1.77341 9.06378 1.75602 9.08122 1.73863 9.11611C1.72124 9.13355 1.70385 9.16844 1.68646 9.18588L1.66908 9.20332C1.65169 9.22077 1.6343 9.25565 1.6343 9.27309C1.61691 9.30798 1.59952 9.32542 1.58213 9.36031L1.58213 9.37775C1.56474 9.39519 1.56474 9.43008 1.54735 9.44752C1.52997 9.48241 1.51258 9.49985 1.51258 9.53474C1.49519 9.55218 1.49519 9.58707 1.4778 9.60451C1.4778 9.62195 1.4778 9.62195 1.46041 9.63939C1.46041 9.65684 1.44302 9.65684 1.44302 9.67428C1.44302 9.69172 1.42563 9.70916 1.42563 9.70916C1.42563 9.72661 1.40825 9.74405 1.40825 9.76149C1.40825 9.77894 1.40825 9.77894 1.39086 9.79638C1.39086 9.81382 1.37347 9.84871 1.37347 9.86615C1.37347 9.86615 1.37347 9.86615 1.37347 9.88359C1.37347 9.90104 1.35608 9.91848 1.35608 9.93592C1.35608 9.95336 1.35608 9.97081 1.33869 9.98825C1.33869 10.0231 1.3213 10.0406 1.3213 10.0755C1.21697 10.4243 1.19958 10.7557 1.19958 11.0697C1.19958 11.122 1.19958 11.1744 1.19958 11.2267C1.19958 11.279 1.19958 11.3139 1.21697 11.3662C1.23436 11.5058 1.25175 11.6628 1.28652 11.8023C1.30391 11.8895 1.3213 11.9942 1.35608 12.0814C1.37347 12.1337 1.39086 12.186 1.40825 12.2384C1.42563 12.3256 1.46041 12.4128 1.4778 12.5C1.56474 12.7268 1.65169 12.9535 1.75602 13.1628L1.75602 13.1803C1.73863 13.1628 1.72124 13.1454 1.72124 13.128L1.70385 13.1105L1.68646 13.0931C1.66908 13.0756 1.65169 13.0582 1.65169 13.0233C1.6343 12.9884 1.59952 12.9535 1.58213 12.9186C1.23436 12.3605 0.990916 11.6453 0.869195 10.8778C0.869195 10.8429 0.851807 10.8081 0.851807 10.7732C0.851807 10.7732 0.851807 10.7732 0.851807 10.7557C0.851807 10.7383 0.851807 10.7034 0.851807 10.686C0.851807 10.6685 0.851807 10.6336 0.851807 10.6162C0.851807 10.5987 0.851807 10.5639 0.851807 10.5464C0.851807 10.5115 0.851807 10.4766 0.851807 10.4418C0.851807 10.4069 0.851807 10.372 0.851807 10.3371C0.851807 9.63939 0.990916 8.95912 1.30391 8.33118C2.27768 6.30782 4.76426 5.03449 6.90308 5.88919C7.11174 5.97641 7.3204 6.06362 7.51168 6.18572C7.58123 6.22061 7.65079 6.25549 7.70296 6.29038C7.75512 6.32526 7.80729 6.3427 7.85945 6.37759C7.85945 6.37759 7.85945 6.37759 7.87684 6.37759C7.89423 6.37759 7.91162 6.39503 7.92901 6.41248C7.92901 6.37759 7.96379 6.39503 7.99856 6.42992C8.03334 6.44736 8.05073 6.4648 8.08551 6.48225C8.12028 6.49969 8.15506 6.53458 8.18984 6.55202C8.22462 6.56946 8.25939 6.60435 8.29417 6.62179C8.32895 6.63923 8.36373 6.67412 8.3985 6.69156C8.43328 6.709 8.46806 6.74389 8.50284 6.76133C8.64195 6.86599 8.76367 6.97065 8.90278 7.0753C9.0245 7.17996 9.16361 7.30206 9.28533 7.40672C9.37227 7.49393 9.45921 7.5637 9.54616 7.65091C9.58094 7.6858 9.59832 7.70324 9.6331 7.73813C9.66788 7.75557 9.68527 7.79046 9.70266 7.8079C9.75482 7.86023 9.7896 7.91256 9.84177 7.94744C9.85915 7.96488 9.89393 7.99977 9.91132 8.01721C9.92871 8.03466 9.9461 8.06954 9.98088 8.08698C10.0157 8.12187 10.033 8.13931 10.0678 8.1742C10.0678 8.1742 10.0852 8.19164 10.0852 8.20908C10.433 8.59283 10.7808 8.99401 11.1111 9.39519C11.1459 9.43008 11.1807 9.48241 11.2155 9.51729L11.1807 9.55218C11.1633 9.56962 11.1459 9.58706 11.1459 9.58706L10.9894 9.74405C10.972 9.76149 10.972 9.77894 10.9546 9.77894C10.9373 9.79638 10.9199 9.81382 10.9199 9.81382C10.8503 9.88359 10.7981 9.93592 10.746 10.0057L10.6764 10.0755C10.659 10.0929 10.659 10.0929 10.6416 10.1278L10.3634 10.4069C10.3286 10.4418 10.2765 10.4941 10.2417 10.529L10.2243 10.5464C10.2069 10.5639 10.2069 10.5813 10.1895 10.5813C10.1722 10.5987 10.1548 10.6162 10.1374 10.6336C10.12 10.6511 10.0852 10.686 10.0678 10.7034C10.0157 10.7557 9.98088 10.8081 9.92871 10.8429C9.89393 10.8778 9.85915 10.9127 9.80699 10.965L9.77221 10.9999L9.77221 11.0174L9.75482 11.0348L9.73743 11.0523L9.72005 11.0697L9.70266 11.0871L9.59832 11.2441Z" fill="url(#paint5_linear_1596_4932)"/>
<path d="M10.1198 10.7036C10.1024 10.721 10.0677 10.7559 10.0503 10.7733C9.99812 10.8257 9.96334 10.878 9.91117 10.9129C9.8764 10.9478 9.84162 10.9827 9.78945 11.035L9.75468 11.0699L9.75468 11.0873L9.73729 11.1048L9.7199 11.1222L9.70251 11.1396C9.31996 10.8082 8.93741 10.4768 8.57224 10.1105C7.37242 9.02907 5.85961 7.87784 4.19029 7.79063C4.08596 7.79063 3.96424 7.79063 3.85991 7.79063C3.70341 7.79063 3.54691 7.80807 3.4078 7.84296C3.39041 7.84296 3.37302 7.8604 3.33825 7.8604C3.32086 7.8604 3.30347 7.87784 3.28608 7.87784C3.19914 7.91273 3.12958 7.93017 3.06003 7.9825C2.19059 8.31391 1.54721 9.16861 1.32116 10.0756C1.2516 10.407 1.21682 10.721 1.21682 11.0524C1.21682 11.1048 1.21682 11.1571 1.21682 11.2094C1.21682 11.2617 1.21682 11.2966 1.23421 11.349C1.2516 11.4885 1.26899 11.6455 1.30377 11.785C1.32116 11.8722 1.33854 11.9769 1.37332 12.0641C1.39071 12.1164 1.4081 12.1688 1.42549 12.2211C1.42549 12.3258 1.46027 12.413 1.47765 12.5002C1.5646 12.7269 1.65154 12.9537 1.75587 13.163C1.68632 13.0758 1.63415 12.9886 1.5646 12.8839C1.21682 12.3258 0.973382 11.6106 0.851661 10.8431C0.764718 10.0407 0.86905 9.23838 1.16466 8.48834C1.23421 8.31391 1.32116 8.13948 1.4081 7.9825C2.03409 6.8836 3.0948 6.04635 4.29462 5.71494C5.42489 5.40096 6.4856 5.61028 7.47676 6.11612C7.54631 6.15101 7.61587 6.18589 7.66803 6.22078C7.7202 6.25566 7.77236 6.2731 7.82453 6.30799C7.82453 6.30799 7.82453 6.30799 7.84192 6.30799C7.85931 6.30799 7.8767 6.32543 7.89408 6.34288C7.92886 6.37776 7.96364 6.3952 7.99842 6.43009C8.03319 6.44753 8.05058 6.46498 8.08536 6.48242C8.13753 6.5173 8.18969 6.55219 8.24186 6.58707C8.29402 6.62196 8.34619 6.65685 8.39836 6.70917C8.43313 6.72662 8.46791 6.7615 8.50269 6.77895C8.6418 6.8836 8.76352 6.98826 8.90263 7.09292C9.02435 7.19757 9.16346 7.31967 9.28518 7.42433C9.37212 7.51154 9.45907 7.58131 9.54601 7.66853C9.58079 7.70341 9.59818 7.72086 9.63295 7.75574C9.66773 7.77319 9.68512 7.80807 9.70251 7.82551C9.82423 7.94761 9.94595 8.06971 10.0503 8.19181C10.4502 8.62788 10.8328 9.06395 11.1979 9.53491L11.1632 9.56979C11.1458 9.58724 11.1284 9.60468 11.1284 9.60468L10.9719 9.76166C10.9545 9.77911 10.9545 9.79655 10.9371 9.79655C10.9197 9.81399 10.9023 9.83144 10.9023 9.83144C10.8328 9.90121 10.7806 9.95353 10.7284 10.0233L10.6589 10.0931C10.6415 10.1105 10.6415 10.1105 10.6241 10.1454L10.3459 10.4245C10.3111 10.4594 10.2589 10.5117 10.2242 10.5466L10.2068 10.564C10.1894 10.5815 10.1894 10.5989 10.172 10.5989C10.1546 10.6687 10.1372 10.6861 10.1198 10.7036Z" fill="url(#paint6_linear_1596_4932)"/>
<path d="M11.1111 9.43008C11.1459 9.46497 11.1807 9.51729 11.2155 9.55218L11.1807 9.58706C11.1633 9.60451 11.1459 9.62195 11.1459 9.62195L10.9894 9.77894C10.972 9.79638 10.972 9.81382 10.9546 9.81382C10.3634 9.49985 9.73743 9.22077 9.11144 8.95912C8.03334 8.52305 6.88569 8.08698 5.72064 7.87767C5.12943 7.77301 4.46866 7.6858 3.86005 7.77301C3.72094 7.79046 3.56444 7.82534 3.42533 7.86023C3.39056 7.86023 3.37317 7.87767 3.33839 7.87767C3.321 7.87767 3.30361 7.89511 3.26884 7.89511C3.25145 7.89511 3.23406 7.89511 3.21667 7.91256C3.19928 7.91256 3.1645 7.93 3.14712 7.93C3.12973 7.93 3.11234 7.94744 3.09495 7.94744C3.07756 7.94744 3.06017 7.96488 3.04278 7.96488C3.02539 7.96488 3.00801 7.98233 2.99062 7.98233C2.97323 7.98233 2.95584 7.99977 2.92106 8.01721C2.90367 8.01721 2.88629 8.03466 2.8689 8.0521C2.85151 8.06954 2.83412 8.06954 2.81673 8.08698C2.78195 8.10443 2.76456 8.12187 2.72979 8.13931C2.7124 8.13931 2.7124 8.15676 2.69501 8.15676C2.67762 8.1742 2.66023 8.1742 2.64284 8.19164C2.62545 8.20908 2.60807 8.20908 2.59068 8.22653C2.57329 8.22653 2.57329 8.24397 2.5559 8.24397C2.53851 8.24397 2.53851 8.26141 2.52112 8.26141C2.48634 8.27886 2.45157 8.31374 2.41679 8.33118C2.3994 8.34863 2.3994 8.34863 2.38201 8.36607C2.36462 8.38351 2.36462 8.38351 2.34724 8.40095L2.26029 8.47073C2.2429 8.48817 2.20813 8.50561 2.19074 8.52305C2.17335 8.5405 2.15596 8.55794 2.12118 8.59283L2.10379 8.61027L2.0864 8.62771C2.06902 8.64515 2.06902 8.64515 2.05163 8.6626C2.03424 8.68004 2.03424 8.69748 2.01685 8.69748C2.01685 8.69748 2.01685 8.69748 1.99946 8.71493L1.96468 8.74981L1.94729 8.7847C1.92991 8.80214 1.92991 8.81958 1.91252 8.83702C1.89513 8.85447 1.89513 8.87191 1.87774 8.88935C1.86035 8.9068 1.84296 8.92424 1.84296 8.94168C1.82557 8.97657 1.80819 8.99401 1.7908 9.0289C1.77341 9.06378 1.75602 9.08122 1.73863 9.11611C1.72124 9.13355 1.70385 9.16844 1.68646 9.18588L1.66908 9.20332C1.65169 9.22077 1.6343 9.25565 1.6343 9.27309C1.61691 9.30798 1.59952 9.32542 1.58213 9.36031L1.58213 9.37775C1.56474 9.39519 1.56474 9.43008 1.54735 9.44752C1.52997 9.48241 1.51258 9.49985 1.51258 9.53474C1.49519 9.55218 1.49519 9.58707 1.4778 9.60451C1.4778 9.62195 1.4778 9.62195 1.46041 9.63939C1.46041 9.65684 1.44302 9.65684 1.44302 9.67428C1.44302 9.69172 1.42563 9.70916 1.42563 9.70916C1.42563 9.72661 1.40825 9.74405 1.40825 9.76149C1.40825 9.77894 1.40825 9.77894 1.39086 9.79638C1.39086 9.81382 1.37347 9.84871 1.37347 9.86615C1.37347 9.86615 1.37347 9.86615 1.37347 9.88359C1.37347 9.90104 1.35608 9.91848 1.35608 9.93592C1.35608 9.95336 1.35608 9.97081 1.33869 9.98825C1.33869 10.0231 1.3213 10.0406 1.3213 10.0755C1.21697 10.4243 1.19958 10.7557 1.19958 11.0697C1.19958 11.122 1.19958 11.1744 1.19958 11.2267C1.19958 11.279 1.19958 11.3139 1.21697 11.3662C1.23436 11.5058 1.25175 11.6628 1.28652 11.8023C1.30391 11.8895 1.3213 11.9942 1.35608 12.0814C1.37347 12.1337 1.39086 12.186 1.40825 12.2384C1.42563 12.3256 1.46041 12.4128 1.4778 12.5C1.56474 12.7268 1.65169 12.9535 1.75602 13.1628L1.75602 13.1803C1.73863 13.1628 1.72124 13.1454 1.72124 13.128L1.70385 13.1105L1.68646 13.0931C1.66908 13.0756 1.65169 13.0582 1.65169 13.0233C1.6343 12.9884 1.59952 12.9535 1.58213 12.9186C1.23436 12.3605 0.990916 11.6453 0.869195 10.8778C0.869195 10.8429 0.851807 10.8081 0.851807 10.7732C0.851807 10.7732 0.851807 10.7732 0.851807 10.7557C0.851807 10.7383 0.851807 10.7034 0.851807 10.686C0.851807 10.6685 0.851807 10.6336 0.851807 10.6162C0.851807 10.5987 0.851807 10.5639 0.851807 10.5464C0.851807 10.5115 0.851807 10.4766 0.851807 10.4418C0.851807 10.4069 0.851807 10.372 0.851807 10.3371C0.851807 9.63939 0.990916 8.95912 1.30391 8.33118C2.27768 6.30782 4.76426 5.03449 6.90308 5.88919C7.11174 5.97641 7.3204 6.06362 7.51168 6.18572C7.58123 6.22061 7.65079 6.25549 7.70296 6.29038C7.75512 6.32526 7.80729 6.3427 7.85945 6.37759C7.85945 6.37759 7.85945 6.37759 7.87684 6.37759C7.89423 6.37759 7.91162 6.39503 7.92901 6.41248C7.92901 6.37759 7.96379 6.39503 7.99856 6.42992C8.03334 6.44736 8.05073 6.4648 8.08551 6.48225C8.12028 6.49969 8.15506 6.53458 8.18984 6.55202C8.22462 6.56946 8.25939 6.60435 8.29417 6.62179C8.32895 6.63923 8.36373 6.67412 8.3985 6.69156C8.43328 6.709 8.46806 6.74389 8.50284 6.76133C8.64195 6.86599 8.76367 6.97065 8.90278 7.0753C9.0245 7.17996 9.16361 7.30206 9.28533 7.40672C9.37227 7.49393 9.45921 7.5637 9.54616 7.65091C9.58094 7.6858 9.59832 7.70324 9.6331 7.73813C9.66788 7.75557 9.68527 7.79046 9.70266 7.8079C9.75482 7.86023 9.7896 7.91256 9.84177 7.94744C9.85915 7.96488 9.89393 7.99977 9.91132 8.01721C9.92871 8.03466 9.9461 8.06954 9.98088 8.08698C10.0157 8.12187 10.033 8.13931 10.0678 8.1742C10.0678 8.1742 10.0852 8.19164 10.0852 8.20908C10.4504 8.62771 10.7981 9.0289 11.1111 9.43008Z" fill="url(#paint7_linear_1596_4932)"/>
<path d="M10.0678 8.22653C9.35488 7.91256 8.45067 7.66836 7.38996 7.5637C5.61631 7.37183 4.67732 7.49393 3.39056 7.86023C3.37317 7.86023 3.35578 7.87767 3.321 7.87767C3.30361 7.87767 3.28622 7.89511 3.26884 7.89511C3.21667 7.91256 3.1645 7.94744 3.09495 7.98233C3.07756 7.98233 3.06017 7.99977 3.04278 7.99977C3.02539 7.99977 3.00801 8.01721 2.99062 8.01721C2.97323 8.01721 2.95584 8.03466 2.92106 8.0521C2.90367 8.0521 2.88628 8.06954 2.8689 8.08698C2.85151 8.10443 2.83412 8.10443 2.81673 8.12187C2.78195 8.13931 2.76456 8.15676 2.72979 8.1742C2.69501 8.19164 2.66023 8.20908 2.64284 8.22653C2.62545 8.24397 2.60807 8.24397 2.59068 8.26141C2.57329 8.26141 2.57329 8.27886 2.5559 8.27886C2.53851 8.27886 2.53851 8.2963 2.52112 8.2963C2.48634 8.31374 2.45157 8.34863 2.41679 8.36607C2.3994 8.38351 2.36462 8.40095 2.34723 8.4184L2.26029 8.47073C2.2429 8.48817 2.20813 8.50561 2.19074 8.52305L2.10379 8.61027L2.0864 8.62771C2.06902 8.64515 2.06902 8.64515 2.05163 8.6626C2.03424 8.68004 2.03424 8.69748 2.01685 8.69748C2.01685 8.69748 2.01685 8.69748 1.99946 8.71493L1.96468 8.74981L1.94729 8.7847C1.92991 8.80214 1.92991 8.81958 1.91252 8.83702C1.89513 8.85447 1.89513 8.87191 1.87774 8.88935C1.86035 8.9068 1.84296 8.92424 1.84296 8.94168C1.82557 8.97657 1.80819 8.99401 1.7908 9.0289C1.77341 9.06378 1.75602 9.08122 1.73863 9.11611C1.72124 9.13355 1.70385 9.16844 1.68646 9.18588L1.66908 9.20332C1.65169 9.22077 1.6343 9.25565 1.6343 9.27309C1.61691 9.30798 1.59952 9.32542 1.58213 9.36031L1.58213 9.37775C1.56474 9.39519 1.56474 9.43008 1.54735 9.44752C1.52997 9.48241 1.51258 9.49985 1.51258 9.53474C1.49519 9.55218 1.49519 9.58707 1.4778 9.60451C1.4778 9.62195 1.4778 9.62195 1.46041 9.63939C1.46041 9.65684 1.44302 9.65684 1.44302 9.67428C1.44302 9.69172 1.42563 9.70916 1.42563 9.70916C1.42563 9.72661 1.40825 9.74405 1.40825 9.76149C1.40825 9.77894 1.40825 9.77894 1.39086 9.79638C1.39086 9.81382 1.37347 9.84871 1.37347 9.86615C1.37347 9.86615 1.37347 9.86615 1.37347 9.88359C1.37347 9.90104 1.35608 9.91848 1.35608 9.93592C1.35608 9.95336 1.35608 9.97081 1.33869 9.98825C1.33869 10.0231 1.3213 10.0406 1.3213 10.0755C1.21697 10.4766 1.18219 10.8604 1.21697 11.2441C1.21697 11.2965 1.21697 11.3313 1.23436 11.3837C1.25175 11.5232 1.26914 11.6802 1.30391 11.8197C1.3213 11.907 1.33869 12.0116 1.37347 12.0988C1.39086 12.1512 1.40824 12.2035 1.42563 12.2558C1.42563 12.3256 1.46041 12.4128 1.4778 12.5C1.56474 12.7268 1.65169 12.9535 1.75602 13.1628L1.75602 13.1803C1.73863 13.1628 1.72124 13.1454 1.72124 13.128L1.70385 13.1105L1.68646 13.0931C1.66908 13.0756 1.65169 13.0582 1.65169 13.0233C1.6343 12.9884 1.59952 12.9535 1.58213 12.9186C1.23436 12.3605 0.990916 11.6453 0.869195 10.8778C0.869195 10.8429 0.851807 10.8081 0.851807 10.7732C0.851807 10.7732 0.851807 10.7732 0.851807 10.7557C0.851807 10.7383 0.851807 10.7034 0.851807 10.686C0.851807 10.6685 0.851807 10.6336 0.851807 10.6162C0.851807 10.5987 0.851807 10.5639 0.851807 10.5464C0.851807 10.5115 0.851807 10.4766 0.851807 10.4418C0.851807 10.4069 0.851807 10.372 0.851807 10.3371C0.851807 9.63939 0.990916 8.95912 1.30391 8.33118C2.27768 6.30782 4.76426 5.03449 6.90307 5.88919C7.11174 5.97641 7.3204 6.06362 7.51168 6.18572C7.58123 6.22061 7.65079 6.25549 7.70295 6.29038C7.75512 6.32526 7.80729 6.3427 7.85945 6.37759C7.85945 6.37759 7.85945 6.37759 7.87684 6.37759C7.89423 6.37759 7.91162 6.39503 7.92901 6.41248C7.92901 6.37759 7.96378 6.39503 7.99856 6.42992C8.03334 6.44736 8.05073 6.4648 8.08551 6.48225C8.12028 6.49969 8.15506 6.53458 8.18984 6.55202C8.22462 6.56946 8.25939 6.60435 8.29417 6.62179C8.32895 6.63923 8.36372 6.67412 8.3985 6.69156C8.43328 6.709 8.46806 6.74389 8.50283 6.76133C8.78105 6.97065 9.04188 7.17996 9.28533 7.42416C9.37227 7.51137 9.45921 7.58114 9.54616 7.66836C9.58093 7.70324 9.59832 7.72069 9.6331 7.75557C9.66788 7.77301 9.68527 7.8079 9.70265 7.82534C9.75482 7.87767 9.7896 7.93 9.84176 7.96488C9.85915 7.98233 9.89393 8.01721 9.91132 8.03466C9.92871 8.0521 9.9461 8.08698 9.98087 8.10443C10.0157 8.15676 10.0504 8.19164 10.0678 8.22653Z" fill="url(#paint8_linear_1596_4932)"/>
<path d="M1.21655 6.58689C1.31259 6.58689 1.39044 6.5088 1.39044 6.41246C1.39044 6.31613 1.31259 6.23803 1.21655 6.23803C1.12052 6.23803 1.04266 6.31613 1.04266 6.41246C1.04266 6.5088 1.12052 6.58689 1.21655 6.58689Z" fill="url(#paint9_linear_1596_4932)"/>
<path d="M1.73807 6.49972C1.78608 6.49972 1.82501 6.46068 1.82501 6.41251C1.82501 6.36434 1.78608 6.32529 1.73807 6.32529C1.69005 6.32529 1.65112 6.36434 1.65112 6.41251C1.65112 6.46068 1.69005 6.49972 1.73807 6.49972Z" fill="url(#paint10_linear_1596_4932)"/>
<path d="M2.01663 6.18584C2.34315 6.18584 2.60785 5.92032 2.60785 5.59278C2.60785 5.26525 2.34315 4.99973 2.01663 4.99973C1.69011 4.99973 1.42542 5.26525 1.42542 5.59278C1.42542 5.92032 1.69011 6.18584 2.01663 6.18584Z" fill="url(#paint11_linear_1596_4932)"/>
<path d="M10.8852 14.2796C10.9026 14.297 10.92 14.3144 10.92 14.3318L10.8852 14.2796Z" fill="url(#paint12_linear_1596_4932)"/>
<path d="M10.9374 14.3147C10.7983 14.4542 10.6592 14.6112 10.5027 14.7507C10.4853 14.7682 10.4679 14.7856 10.4505 14.8031C10.4158 14.8379 10.3636 14.8728 10.3288 14.9077C10.3114 14.9252 10.3114 14.9252 10.294 14.9426C10.2419 14.9775 10.2071 15.0298 10.1549 15.0647C10.0506 15.1694 9.92887 15.2566 9.82454 15.3438C9.78976 15.3612 9.77237 15.3961 9.73759 15.4136C9.70281 15.431 9.68543 15.4484 9.65065 15.4833C9.61587 15.5008 9.59848 15.5182 9.5637 15.5357C9.37243 15.6752 9.18115 15.8147 8.98988 15.9368C8.98988 15.9368 8.97249 15.9368 8.97249 15.9543C8.93771 15.9717 8.92032 15.9892 8.88554 16.0066C8.86816 16.0241 8.85077 16.024 8.83338 16.0415C8.76382 16.0764 8.69427 16.1287 8.62471 16.1636C8.60733 16.181 8.57255 16.1985 8.55516 16.1985C8.53777 16.2159 8.52038 16.2159 8.50299 16.2334C8.48561 16.2508 8.45083 16.2508 8.43344 16.2682C8.25955 16.3555 8.08566 16.4427 7.91178 16.495C7.877 16.5124 7.84222 16.5299 7.80745 16.5299C7.75528 16.5473 7.70311 16.5648 7.63356 16.5822C7.59878 16.5997 7.564 16.5997 7.52923 16.6171C5.23392 17.3323 2.52128 16.4601 1.1128 14.5065C0.417247 13.5472 0.0520845 12.3611 0.0346958 11.175C0.0173071 10.4249 0.156417 9.6051 0.556357 8.71552C0.695467 8.41899 0.851965 8.10502 1.06063 7.80849L1.06063 7.82594C1.04324 7.86082 1.04324 7.89571 1.04324 7.91315L1.04324 7.93059C0.78241 9.06438 0.347692 10.0063 0.608523 11.2273C0.765021 11.9948 1.13018 12.7099 1.65185 13.2855C1.96484 13.6169 2.33 13.896 2.72994 14.1053C3.37333 14.4193 4.10365 14.5414 4.83398 14.4891C5.30347 14.4542 5.77297 14.3495 6.22507 14.1926C7.35534 13.7914 8.32911 13.0762 9.21593 12.2738C9.23332 12.2564 9.25071 12.239 9.2681 12.2215C9.37243 12.3436 9.45937 12.4483 9.5637 12.5704L9.61587 12.6227C9.73759 12.7797 9.8767 12.9541 9.99842 13.1111L10.068 13.1983C10.1028 13.2332 10.1201 13.2681 10.1549 13.3204C10.1723 13.3379 10.1897 13.3553 10.2071 13.3902L10.3462 13.5646C10.4679 13.7216 10.607 13.8786 10.7287 14.053L10.7635 14.0879L10.8852 14.2449C10.8852 14.2449 10.8852 14.2449 10.9026 14.2623C10.9026 14.2798 10.92 14.2972 10.9374 14.3147Z" fill="url(#paint13_linear_1596_4932)"/>
<path d="M10.9374 14.3147C10.7983 14.4542 10.6592 14.6112 10.5027 14.7507C10.4853 14.7682 10.4679 14.7856 10.4505 14.8031C10.4158 14.8379 10.3636 14.8728 10.3288 14.9077C10.3114 14.9252 10.3114 14.9252 10.294 14.9426C10.2419 14.9775 10.2071 15.0298 10.1549 15.0647C10.0506 15.1694 9.92887 15.2566 9.82454 15.3438C9.78976 15.3612 9.77237 15.3961 9.73759 15.4136C9.70281 15.431 9.68543 15.4484 9.65065 15.4833C9.61587 15.5008 9.59848 15.5182 9.5637 15.5357C9.37243 15.6752 9.18115 15.8147 8.98988 15.9368C8.98988 15.9368 8.97249 15.9368 8.97249 15.9543C8.93771 15.9717 8.92032 15.9892 8.88554 16.0066C8.86816 16.0241 8.85077 16.024 8.83338 16.0415C8.76382 16.0764 8.69427 16.1287 8.62471 16.1636C8.60733 16.181 8.57255 16.1985 8.55516 16.1985C8.53777 16.2159 8.52038 16.2159 8.50299 16.2334C8.48561 16.2508 8.45083 16.2508 8.43344 16.2682C8.25955 16.3555 8.08566 16.4427 7.91178 16.495C7.877 16.5124 7.84222 16.5299 7.80745 16.5299C7.75528 16.5473 7.70311 16.5648 7.63356 16.5822C7.59878 16.5997 7.564 16.5997 7.52923 16.6171C5.23392 17.3323 2.52128 16.4601 1.1128 14.5065C0.417247 13.5472 0.0520845 12.3611 0.0346958 11.175C0.0173071 10.4249 0.156417 9.6051 0.556357 8.71552C0.695467 8.41899 0.851965 8.10502 1.06063 7.80849L1.06063 7.82594C1.04324 7.86082 1.04324 7.89571 1.04324 7.91315L1.04324 7.93059C0.78241 9.06438 0.347692 10.0063 0.608523 11.2273C0.765021 11.9948 1.13018 12.7099 1.65185 13.2855C1.96484 13.6169 2.33 13.896 2.72994 14.1053C3.37333 14.4193 4.10365 14.5414 4.83398 14.4891C5.30347 14.4542 5.77297 14.3495 6.22507 14.1926C7.35534 13.7914 8.32911 13.0762 9.21593 12.2738C9.23332 12.2564 9.25071 12.239 9.2681 12.2215C9.37243 12.3436 9.45937 12.4483 9.5637 12.5704L9.61587 12.6227C9.73759 12.7797 9.8767 12.9541 9.99842 13.1111L10.068 13.1983C10.1028 13.2332 10.1201 13.2681 10.1549 13.3204C10.1723 13.3379 10.1897 13.3553 10.2071 13.3902L10.3462 13.5646C10.4679 13.7216 10.607 13.8786 10.7287 14.053L10.7635 14.0879L10.8852 14.2449C10.8852 14.2449 10.8852 14.2449 10.9026 14.2623C10.9026 14.2798 10.92 14.2972 10.9374 14.3147Z" fill="url(#paint14_linear_1596_4932)"/>
<path d="M10.8852 14.2624C10.7461 14.4368 10.5896 14.6113 10.4505 14.7857C10.4157 14.8206 10.3636 14.8555 10.3288 14.8903C10.3114 14.9078 10.3114 14.9078 10.294 14.9252C10.2419 14.9601 10.2071 15.0124 10.1549 15.0473C10.0506 15.152 9.92887 15.2392 9.82453 15.3264C9.78976 15.3439 9.77237 15.3787 9.73759 15.3962C9.70281 15.4136 9.68542 15.4311 9.65065 15.466C9.61587 15.4834 9.59848 15.5008 9.5637 15.5183C9.37243 15.6578 9.18115 15.7974 8.98988 15.9195C8.98988 15.9195 8.97249 15.9195 8.97249 15.9369C8.93771 15.9544 8.92032 15.9718 8.88554 15.9892C8.86815 16.0067 8.85077 16.0067 8.83338 16.0241C8.76382 16.059 8.69427 16.1113 8.62471 16.1462C8.60732 16.1637 8.57255 16.1811 8.55516 16.1811C8.53777 16.1986 8.52038 16.1986 8.50299 16.216C8.4856 16.2334 8.45083 16.2334 8.43344 16.2509C8.25955 16.3381 8.08566 16.4253 7.91178 16.4776C7.877 16.4951 7.84222 16.5125 7.80744 16.5125C7.75528 16.53 7.70311 16.5474 7.63356 16.5649C7.59878 16.5823 7.564 16.5823 7.52922 16.5997C5.23392 17.3149 2.52128 16.4428 1.1128 14.4892C0.417247 13.5298 0.0520845 12.3437 0.0346958 11.1576C0.0173071 10.4075 0.156417 9.58774 0.556357 8.69816C0.695466 8.40163 0.851965 8.08766 1.06063 7.79113L1.06063 7.80857C1.04324 7.8609 1.04324 7.89579 1.04324 7.91323L1.04324 7.93067C0.78241 9.06445 0.347692 10.0064 0.608523 11.2274C0.765021 11.9948 1.13018 12.71 1.65184 13.2856C1.96484 13.617 2.33 13.8961 2.72994 14.1054C3.37333 14.4194 4.10365 14.5415 4.83398 14.4892C5.30347 14.4543 5.77297 14.3496 6.22507 14.1926C7.35534 13.7915 8.32911 13.0763 9.21593 12.2739C9.23332 12.2565 9.25071 12.239 9.26809 12.2216C9.37243 12.3437 9.45937 12.4484 9.5637 12.5705L9.61587 12.6228C9.73759 12.7798 9.8767 12.9542 9.99842 13.1112L10.068 13.1984C10.1028 13.2333 10.1201 13.2682 10.1549 13.3205C10.1723 13.3379 10.1897 13.3554 10.2071 13.3903L10.3462 13.5647C10.4679 13.7217 10.607 13.8787 10.7287 14.0531L10.7635 14.088L10.8852 14.2624Z" fill="url(#paint15_linear_1596_4932)"/>
<path d="M10.9374 14.3147C10.7983 14.4542 10.6592 14.6112 10.5027 14.7507C10.4853 14.7682 10.4679 14.7856 10.4505 14.8031C10.4158 14.8379 10.3636 14.8728 10.3288 14.9077C10.3114 14.9252 10.3114 14.9252 10.294 14.9426C10.2419 14.9775 10.2071 15.0298 10.1549 15.0647C10.0506 15.1694 9.92887 15.2566 9.82454 15.3438C9.78976 15.3612 9.77237 15.3961 9.73759 15.4136C9.70281 15.431 9.68543 15.4484 9.65065 15.4833C9.61587 15.5008 9.59848 15.5182 9.5637 15.5357C9.37243 15.6752 9.18115 15.8147 8.98988 15.9368C8.98988 15.9368 8.97249 15.9368 8.97249 15.9543C8.93771 15.9717 8.92032 15.9892 8.88554 16.0066C8.86816 16.0241 8.85077 16.024 8.83338 16.0415C8.76382 16.0764 8.69427 16.1287 8.62471 16.1636C8.60733 16.181 8.57255 16.1985 8.55516 16.1985C8.53777 16.2159 8.52038 16.2159 8.50299 16.2334C8.48561 16.2508 8.45083 16.2508 8.43344 16.2682C8.25955 16.3555 8.08566 16.4427 7.91178 16.495C7.877 16.5124 7.84222 16.5299 7.80745 16.5299C7.75528 16.5473 7.70311 16.5648 7.63356 16.5822C7.59878 16.5997 7.564 16.5997 7.52923 16.6171C5.23392 17.3323 2.52128 16.4601 1.1128 14.5065C0.417247 13.5472 0.0520845 12.3611 0.0346958 11.175C0.0173071 10.4249 0.156417 9.6051 0.556357 8.71552C0.695467 8.41899 0.851965 8.10502 1.06063 7.80849L1.06063 7.82594C1.04324 7.86082 1.04324 7.89571 1.04324 7.91315L1.04324 7.93059C0.78241 9.06438 0.347692 10.0063 0.608523 11.2273C0.765021 11.9948 1.13018 12.7099 1.65185 13.2855C1.96484 13.6169 2.33 13.896 2.72994 14.1053C3.37333 14.4193 4.10365 14.5414 4.83398 14.4891C5.30347 14.4542 5.77297 14.3495 6.22507 14.1926C7.35534 13.7914 8.32911 13.0762 9.21593 12.2738C9.23332 12.2564 9.25071 12.239 9.2681 12.2215C9.37243 12.3436 9.45937 12.4483 9.5637 12.5704L9.61587 12.6227C9.73759 12.7797 9.8767 12.9541 9.99842 13.1111L10.068 13.1983C10.1028 13.2332 10.1201 13.2681 10.1549 13.3204C10.1723 13.3379 10.1897 13.3553 10.2071 13.3902L10.3462 13.5646C10.4679 13.7216 10.607 13.8786 10.7287 14.053L10.7635 14.0879L10.8852 14.2449C10.8852 14.2449 10.8852 14.2449 10.9026 14.2623C10.9026 14.2798 10.92 14.2972 10.9374 14.3147Z" fill="url(#paint16_linear_1596_4932)"/>
<path d="M10.1549 13.338C10.1201 13.4077 10.0853 13.4775 10.0505 13.5647C9.66798 14.3148 9.19849 15.0125 8.64205 15.6404C8.34644 15.9718 8.01606 16.3033 7.6335 16.53C7.59873 16.5475 7.58134 16.5823 7.54656 16.5998C5.25125 17.3149 2.53861 16.4428 1.13013 14.4892C0.434581 13.5298 0.0694185 12.3437 0.0520298 11.1576C0.0346411 10.4076 0.173751 9.58778 0.573691 8.69819C0.7128 8.40167 0.869299 8.0877 1.07796 7.79117L1.07796 7.80861C1.04319 7.86094 1.04319 7.89583 1.04319 7.91327L1.04319 7.93071C0.782355 9.06449 0.347638 10.0064 0.608468 11.2274C0.764967 11.9949 1.13013 12.71 1.65179 13.2857C1.96479 13.6171 2.32995 13.8961 2.72989 14.1055C3.37327 14.4194 4.1036 14.5415 4.83392 14.4892C5.30342 14.4543 5.77291 14.3497 6.22502 14.1927C7.35528 13.7915 8.32905 13.0763 9.21588 12.274C9.23326 12.2565 9.25065 12.2391 9.26804 12.2216C9.37237 12.3437 9.45932 12.4484 9.56365 12.5705L9.61582 12.6228C9.73754 12.7798 9.87665 12.9542 9.99837 13.1112L10.0679 13.1984C10.0853 13.2682 10.1201 13.3031 10.1549 13.338Z" fill="url(#paint17_linear_1596_4932)"/>
<path d="M0.330385 14.2968C0.512852 14.2968 0.660771 14.1484 0.660771 13.9654C0.660771 13.7823 0.512852 13.634 0.330385 13.634C0.147919 13.634 -3.81282e-09 13.7823 -8.51617e-09 13.9654C-1.32195e-08 14.1484 0.147919 14.2968 0.330385 14.2968Z" fill="url(#paint18_linear_1596_4932)"/>
<path d="M0.765099 14.4887C0.82272 14.4887 0.869431 14.4419 0.869431 14.3841C0.869431 14.3263 0.82272 14.2794 0.765099 14.2794C0.707478 14.2794 0.660767 14.3263 0.660767 14.3841C0.660767 14.4419 0.707478 14.4887 0.765099 14.4887Z" fill="url(#paint19_linear_1596_4932)"/>
<path d="M0.208433 13.5818C0.304468 13.5818 0.38232 13.5037 0.38232 13.4074C0.38232 13.3111 0.304468 13.233 0.208433 13.233C0.112398 13.233 0.0345459 13.3111 0.0345459 13.4074C0.0345459 13.5037 0.112398 13.5818 0.208433 13.5818Z" fill="url(#paint20_linear_1596_4932)"/>
<path d="M20.7269 8.8201C20.7269 8.85498 20.7269 8.87243 20.7269 8.90731C20.7269 8.92476 20.7269 8.9422 20.7269 8.97708C20.7269 8.99453 20.7269 9.01197 20.7269 9.02941L20.7269 9.04686C20.7269 9.0643 20.7269 9.08174 20.7269 9.08174C20.7269 9.09918 20.7269 9.11663 20.7269 9.13407C20.7269 9.1864 20.7095 9.23873 20.7095 9.29105C20.7095 9.3085 20.7095 9.32594 20.6922 9.36083L20.6922 9.37827C20.6922 9.39571 20.6922 9.41315 20.6748 9.4306C20.6748 9.44804 20.6748 9.46548 20.6574 9.48293C20.6574 9.50037 20.64 9.53525 20.64 9.5527C20.6052 9.6748 20.5704 9.77945 20.5357 9.90155C20.5357 9.919 20.5183 9.93644 20.5183 9.95388C20.5183 9.95388 20.5183 9.97132 20.5009 9.98877C20.5009 10.0062 20.4835 10.0237 20.4661 10.0585C20.4487 10.0934 20.4313 10.1283 20.4139 10.1632C20.2227 10.5818 19.9271 11.0353 19.5097 11.5237C19.4923 11.5412 19.4749 11.5586 19.4576 11.5761C19.4402 11.6109 19.4054 11.6284 19.388 11.6633C19.3706 11.6807 19.3532 11.6982 19.3358 11.7156C19.3185 11.733 19.3011 11.7505 19.2837 11.7854C19.2663 11.8028 19.2489 11.8203 19.2315 11.8551C19.2141 11.8726 19.1967 11.9075 19.1793 11.9249C19.1446 10.9656 18.9707 9.90155 18.1708 9.37827C17.7013 9.0643 17.0753 9.01197 16.5189 9.15151C16.5015 9.15151 16.4841 9.15151 16.4841 9.16896C16.4667 9.16896 16.4667 9.16896 16.4493 9.1864C16.4319 9.1864 16.4145 9.1864 16.3972 9.20384C16.3798 9.20384 16.3798 9.20384 16.3624 9.22128C16.3276 9.22128 16.3102 9.23873 16.2754 9.25617C16.258 9.25617 16.258 9.25617 16.2407 9.27361C16.2059 9.29105 16.1711 9.3085 16.1363 9.3085C15.632 9.51781 15.1799 9.84922 14.78 10.1981C14.7452 10.233 14.7104 10.2679 14.6583 10.3027C14.5887 10.3725 14.5018 10.4423 14.4322 10.5121C14.3975 10.5469 14.3627 10.5818 14.3279 10.6167C14.2931 10.6516 14.2583 10.6865 14.2236 10.7214C14.1888 10.7562 14.154 10.7911 14.1192 10.826C14.0497 10.8958 13.9801 10.9656 13.9106 11.0353C13.8758 11.0702 13.841 11.1051 13.8062 11.1574C13.7193 11.2621 13.615 11.3493 13.528 11.454L13.4411 11.5586C13.4237 11.5761 13.4063 11.6109 13.3715 11.6284C13.3194 11.6807 13.2672 11.7505 13.215 11.8028C13.1802 11.8377 13.1629 11.8551 13.1281 11.89L13.1107 11.9075C13.0933 11.9424 13.0585 11.9598 13.0411 11.9947C12.9716 12.0645 12.9194 12.1342 12.8499 12.204C12.8151 12.2389 12.7803 12.2912 12.7455 12.3261C12.6412 12.4656 12.5195 12.5877 12.4151 12.7273C12.363 12.7971 12.2934 12.8668 12.2413 12.9366C12.2065 12.9715 12.1717 13.0064 12.1369 13.0587C12.0326 13.1808 11.9283 13.3203 11.8065 13.4424C11.7022 13.5645 11.5979 13.6692 11.5109 13.7913C11.4761 13.8262 11.4414 13.8785 11.4066 13.9134C11.3892 13.9483 11.3544 13.9657 11.337 13.9832C11.3197 14.0006 11.3023 14.0181 11.3023 14.0355L11.2849 14.0181C11.2675 14.0006 11.2501 13.9657 11.2327 13.9483C11.1979 13.9134 11.1632 13.8785 11.1458 13.8436C11.024 13.6866 10.8849 13.5297 10.7632 13.3727C10.711 13.3203 10.6589 13.2506 10.6241 13.1982C10.5719 13.1459 10.5372 13.0761 10.485 13.0238C10.4676 12.9889 10.4328 12.9715 10.4154 12.9366C10.2763 12.7796 10.1546 12.6052 10.0155 12.4482C9.89378 12.3087 9.77206 12.1517 9.66772 12.0121C9.68511 11.9947 9.7025 11.9772 9.71989 11.9598C9.75467 11.9249 9.78945 11.89 9.82422 11.8726C9.84161 11.8551 9.859 11.8377 9.87639 11.8203C9.91117 11.7854 9.92856 11.7679 9.96333 11.733C9.99811 11.6982 10.0329 11.6633 10.0677 11.6284C10.0851 11.6109 10.1024 11.5935 10.1198 11.5761C10.1372 11.5586 10.1546 11.5412 10.1546 11.5412L10.172 11.5237C10.2242 11.4888 10.2589 11.4365 10.2937 11.4016C10.3459 11.3493 10.3807 11.3144 10.4328 11.2621C10.4328 11.2621 10.4328 11.2621 10.4502 11.2446C10.4676 11.2098 10.5024 11.1923 10.5198 11.1749C10.5372 11.1574 10.5545 11.14 10.5545 11.14C10.5719 11.1225 10.5893 11.1051 10.6067 11.0877C10.6589 11.0353 10.6937 11.0004 10.7284 10.9481C10.8154 10.8435 10.9023 10.7563 11.0067 10.6516C11.024 10.6342 11.0414 10.6167 11.0588 10.5993C11.0762 10.5818 11.111 10.5469 11.1284 10.5295C11.1805 10.4597 11.2501 10.4074 11.3023 10.3376C11.3544 10.2853 11.3892 10.2504 11.424 10.1981C11.424 10.1981 11.4414 10.1981 11.4414 10.1806L11.5631 10.0585C11.5631 10.0411 11.5805 10.0411 11.5979 10.0237C11.7022 9.919 11.8065 9.7969 11.9109 9.69224C12.05 9.5527 12.1891 9.41315 12.3108 9.27361C12.363 9.22128 12.4151 9.15151 12.4847 9.09918C12.5195 9.0643 12.5542 9.02941 12.589 8.99453C12.6238 8.95964 12.676 8.90731 12.7107 8.87243C12.7977 8.78521 12.8846 8.698 12.989 8.59334C13.0237 8.55846 13.0585 8.52357 13.0933 8.48869C13.1976 8.40147 13.2846 8.29682 13.3889 8.2096C13.4237 8.17472 13.4759 8.12239 13.528 8.0875L13.5454 8.07006C13.7019 7.93052 13.841 7.80842 13.9975 7.66887C14.0323 7.63399 14.0671 7.61655 14.1018 7.58166C14.1366 7.54677 14.1714 7.52933 14.2062 7.49445C14.241 7.45956 14.2757 7.44212 14.3105 7.40723C14.3105 7.40723 14.3105 7.40723 14.3279 7.38979C14.3453 7.37235 14.3801 7.3549 14.3975 7.33746C14.4148 7.32002 14.4496 7.30258 14.467 7.28513C14.5018 7.25025 14.5539 7.21536 14.5887 7.19792C14.6409 7.16303 14.6931 7.12815 14.7278 7.09326C14.7626 7.07582 14.78 7.05838 14.8148 7.02349C14.8496 7.00605 14.8843 6.97116 14.9191 6.95372C15.0582 6.86651 15.1973 6.77929 15.3538 6.69208C15.3886 6.67463 15.4408 6.63975 15.4755 6.62231C15.5277 6.60486 15.5625 6.56998 15.6147 6.55254C15.6147 6.43044 15.6494 6.41299 15.7016 6.39555C15.719 6.37811 15.7538 6.37811 15.7712 6.36066C15.7885 6.36066 15.8059 6.34322 15.8233 6.34322C15.8407 6.32578 15.8581 6.32578 15.8755 6.30834C15.9103 6.29089 15.945 6.27345 15.9624 6.27345C15.9972 6.25601 16.0146 6.25601 16.0494 6.23857C16.0668 6.23857 16.0842 6.22112 16.1015 6.22112C16.1189 6.22112 16.1189 6.22112 16.1363 6.20368C16.1363 6.20368 16.1363 6.20368 16.1537 6.20368C16.2059 6.18624 16.2407 6.16879 16.2928 6.15135C16.3102 6.15135 16.3102 6.15135 16.3276 6.13391C16.345 6.13391 16.3624 6.11647 16.3798 6.11647C16.4145 6.09902 16.4667 6.08158 16.5015 6.08158L16.5189 6.08158L16.5363 6.08158L16.5536 6.08158C16.571 6.08158 16.5884 6.06414 16.6058 6.06414C16.6406 6.06414 16.658 6.04669 16.6928 6.04669C16.7101 6.04669 16.7275 6.02925 16.7623 6.02925C16.7971 6.02925 16.8145 6.01181 16.8493 6.01181C16.8666 6.01181 16.884 6.01181 16.9014 5.99437C16.9188 5.99437 16.9188 5.99437 16.9362 5.99437L16.9536 5.99437C16.9884 5.99437 17.0231 5.97692 17.0579 5.97692C17.0579 5.97692 17.0579 5.97692 17.0753 5.97692C17.1101 5.97692 17.1449 5.95948 17.1796 5.95948C17.1796 5.95948 17.1796 5.95948 17.197 5.95948L17.2144 5.95948C17.2318 5.95948 17.2492 5.95948 17.2666 5.95948C17.3014 5.95948 17.3188 5.95948 17.3361 5.95948L17.3535 5.95948L17.3709 5.95948C17.3709 5.95948 17.3709 5.95948 17.3883 5.95948C17.4057 5.95948 17.4405 5.95948 17.4579 5.95948C17.4753 5.95948 17.4752 5.95948 17.4926 5.95948C17.5274 5.95948 17.5448 5.95948 17.5796 5.95948C17.6144 5.95948 17.6491 5.95948 17.6839 5.95948C17.7709 5.95948 17.8578 5.95948 17.9274 5.95948C17.9795 5.95948 18.0317 5.95948 18.0665 5.97692C18.1012 5.97692 18.1186 5.97692 18.136 5.99437L18.1534 5.99437C18.1534 5.99437 18.1534 5.99437 18.1708 5.99437L18.1882 5.99437C18.2056 5.99437 18.2056 5.99437 18.223 5.99437L18.2404 5.99437C18.2751 5.99437 18.2925 6.01181 18.3273 6.01181C18.3447 6.01181 18.3447 6.01181 18.3621 6.01181C18.3795 6.01181 18.3969 6.01181 18.3969 6.01181C18.4316 6.01181 18.4664 6.02925 18.5012 6.04669C18.536 6.06414 18.5707 6.06414 18.6055 6.08158C18.6229 6.08158 18.7098 6.13391 18.8663 6.22112C18.8837 6.22112 18.8837 6.23857 18.9011 6.23857C18.9359 6.25601 18.9533 6.27345 18.9881 6.29089C19.0228 6.30834 19.0576 6.34322 19.0924 6.36066C19.0924 6.36066 19.1098 6.36066 19.1098 6.37811C19.1446 6.39555 19.162 6.41299 19.1967 6.43044C19.2315 6.46532 19.2837 6.48276 19.3185 6.51765C19.3358 6.53509 19.3706 6.55254 19.388 6.56998C19.388 6.56998 19.388 6.56998 19.4054 6.58742C19.5097 6.65719 19.5967 6.74441 19.6836 6.83162C19.701 6.84906 19.7358 6.88395 19.7532 6.90139C19.7879 6.93628 19.8227 6.97116 19.8575 7.00605C19.8749 7.02349 19.8749 7.02349 19.8923 7.04093C19.9097 7.05838 19.9097 7.05838 19.9271 7.07582C19.9966 7.16303 20.0662 7.25025 20.1357 7.33746C20.1531 7.37235 20.1879 7.38979 20.2053 7.42468C20.2227 7.45956 20.2401 7.477 20.2574 7.51189C20.2748 7.54677 20.2922 7.56422 20.3096 7.5991C20.327 7.61655 20.3444 7.65143 20.3444 7.66887C20.3618 7.70376 20.3792 7.7212 20.3792 7.75609C20.3966 7.80842 20.4313 7.86075 20.4487 7.89563C20.4661 7.94796 20.4835 8.00029 20.5009 8.05262C20.5357 8.15727 20.5704 8.26193 20.5878 8.36659C20.5878 8.40147 20.6052 8.41891 20.6052 8.4538C20.6052 8.48869 20.6052 8.50613 20.6226 8.54101C20.6226 8.59334 20.64 8.64567 20.64 8.698C20.64 8.73289 20.64 8.75033 20.64 8.78521C20.7269 8.75033 20.7269 8.78521 20.7269 8.8201Z" fill="url(#paint21_linear_1596_4932)"/>
<path d="M20.7272 8.82012C20.7272 8.85501 20.7272 8.87245 20.7272 8.90734C20.7272 8.92478 20.7272 8.94222 20.7272 8.97711C20.7272 8.99455 20.7272 9.01199 20.7272 9.02944L20.7272 9.04688C20.7272 9.06432 20.7272 9.08176 20.7272 9.08176C20.7272 9.09921 20.7272 9.11665 20.7272 9.13409C20.7272 9.18642 20.7098 9.23875 20.7098 9.29108C20.7098 9.30852 20.7098 9.32596 20.6924 9.36085L20.6924 9.37829C20.6924 9.39573 20.6924 9.41318 20.675 9.43062C20.675 9.44806 20.675 9.46551 20.6576 9.48295C20.6576 9.50039 20.6402 9.53528 20.6402 9.55272C20.6054 9.67482 20.5707 9.77948 20.5359 9.90158C20.5359 9.91902 20.5185 9.93646 20.5185 9.9539C20.5185 9.9539 20.5185 9.97135 20.5011 9.98879C20.5011 10.0062 20.4837 10.0237 20.4663 10.0586C20.4489 10.0934 20.4316 10.1283 20.4142 10.1632C20.2577 10.0237 19.736 9.67482 19.6838 9.63993C19.3882 9.46551 19.0926 9.32596 18.7622 9.22131C18.1189 9.01199 17.4407 8.95966 16.7799 9.08176C16.6756 9.09921 16.5887 9.11665 16.4843 9.15154C16.4669 9.15154 16.4495 9.15154 16.4495 9.16898C16.4322 9.16898 16.4322 9.16898 16.4148 9.18642C16.3974 9.18642 16.38 9.18642 16.3626 9.20386C16.3452 9.20386 16.3452 9.20386 16.3278 9.22131C16.2931 9.22131 16.2757 9.23875 16.2409 9.25619C16.2235 9.25619 16.2235 9.25619 16.2061 9.27364C16.1713 9.29108 16.1366 9.30852 16.1018 9.30852C15.5627 9.51783 15.0932 9.84925 14.6759 10.2504C14.6585 10.2679 14.6411 10.2853 14.6237 10.3028C14.5542 10.3725 14.4672 10.4423 14.3977 10.5121C14.3629 10.547 14.3281 10.5818 14.2933 10.6167C14.2586 10.6516 14.2238 10.6865 14.189 10.7214C14.1542 10.7563 14.1195 10.7912 14.0847 10.826C14.0151 10.8958 13.9456 10.9656 13.876 11.0354C13.8412 11.0702 13.8065 11.1051 13.7717 11.1575C13.6847 11.2621 13.5804 11.3493 13.4935 11.454L13.4065 11.5586C13.3891 11.5761 13.3717 11.611 13.337 11.6284C13.2848 11.6807 13.2326 11.7505 13.1805 11.8028C13.1457 11.8377 13.1283 11.8552 13.0935 11.8901L13.0761 11.9075C13.0588 11.9424 13.024 11.9598 13.0066 11.9947C12.937 12.0645 12.8849 12.1343 12.8153 12.204C12.7805 12.2389 12.7458 12.2912 12.711 12.3261C12.6066 12.4657 12.4849 12.5878 12.3806 12.7273C12.3284 12.7971 12.2589 12.8669 12.2067 12.9366C12.1719 12.9715 12.1372 13.0064 12.1024 13.0587C11.998 13.1808 11.8937 13.3204 11.772 13.4425C11.6677 13.5646 11.5633 13.6692 11.4764 13.7913C11.4416 13.8262 11.4068 13.8785 11.372 13.9134C11.3547 13.9483 11.3199 13.9657 11.3025 13.9832C11.2851 14.0006 11.2677 14.0181 11.2677 14.0355L11.2503 14.0181C11.2329 14.0006 11.2156 13.9657 11.1982 13.9483C11.1634 13.9134 11.1286 13.8785 11.1112 13.8436C10.9895 13.6867 10.8504 13.5297 10.7287 13.3727C10.6765 13.3204 10.6243 13.2506 10.5896 13.1983C10.5374 13.1459 10.5026 13.0762 10.4504 13.0238C10.4331 12.989 10.3983 12.9715 10.3809 12.9366C10.2418 12.7796 10.1201 12.6052 9.98095 12.4482C9.85923 12.3087 9.73751 12.1517 9.63318 12.0122C9.65057 11.9947 9.66796 11.9773 9.68534 11.9598C9.72012 11.9249 9.7549 11.8901 9.78968 11.8726C9.80707 11.8552 9.82445 11.8377 9.84184 11.8203C9.87662 11.7854 9.89401 11.768 9.92879 11.7331C9.96356 11.6982 9.99834 11.6633 10.0331 11.6284C10.0505 11.611 10.0679 11.5935 10.0853 11.5761C10.1027 11.5586 10.1201 11.5412 10.1201 11.5412L10.1375 11.5238C10.1896 11.4889 10.2244 11.4365 10.2592 11.4017C10.3113 11.3493 10.3461 11.3144 10.3983 11.2621C10.3983 11.2621 10.3983 11.2621 10.4157 11.2447C10.4331 11.2098 10.4678 11.1923 10.4852 11.1749C10.5026 11.1575 10.52 11.14 10.52 11.14C10.5374 11.1226 10.5548 11.1051 10.5722 11.0877C10.6243 11.0354 10.6591 11.0005 10.6939 10.9481C10.7808 10.8435 10.8678 10.7563 10.9721 10.6516C10.9895 10.6342 11.0069 10.6167 11.0243 10.5993C11.0417 10.5818 11.0764 10.547 11.0938 10.5295C11.146 10.4597 11.2156 10.4074 11.2677 10.3376C11.3199 10.2853 11.3547 10.2504 11.3894 10.1981C11.3894 10.1981 11.4068 10.1981 11.4068 10.1807L11.5285 10.0586C11.5285 10.0411 11.5459 10.0411 11.5633 10.0237C11.6677 9.91902 11.772 9.79692 11.8763 9.69226C12.0154 9.55272 12.1545 9.41318 12.2763 9.27364C12.3284 9.22131 12.3806 9.15154 12.4501 9.09921C12.4849 9.06432 12.5197 9.02944 12.5545 8.99455C12.5893 8.95966 12.6414 8.90734 12.6762 8.87245C12.7631 8.78524 12.8501 8.69802 12.9544 8.59337C12.9892 8.55848 13.024 8.52359 13.0588 8.48871C13.1631 8.4015 13.25 8.29684 13.3544 8.20962C13.3891 8.17474 13.4413 8.12241 13.4935 8.08753L13.5109 8.07008C13.6674 7.93054 13.8065 7.80844 13.963 7.6689C13.9977 7.63401 14.0325 7.61657 14.0673 7.58168C14.1021 7.5468 14.1369 7.52936 14.1716 7.49447C14.2064 7.45958 14.2412 7.44214 14.276 7.40726C14.276 7.40726 14.276 7.40726 14.2933 7.38981C14.3107 7.37237 14.3455 7.35493 14.3629 7.33748C14.3803 7.32004 14.4151 7.3026 14.4325 7.28516C14.4672 7.25027 14.5194 7.21538 14.5542 7.19794C14.6063 7.16306 14.6585 7.12817 14.6933 7.09329C14.7281 7.07584 14.7455 7.0584 14.7802 7.02351C14.815 7.00607 14.8498 6.97119 14.8846 6.95374C15.0237 6.86653 15.1628 6.77931 15.3193 6.6921C15.3541 6.67466 15.4062 6.63977 15.441 6.62233C15.4932 6.60489 15.5279 6.57 15.5801 6.55256C15.6149 6.43046 15.6497 6.41302 15.7018 6.39557C15.7192 6.37813 15.754 6.37813 15.7714 6.36069C15.7888 6.36069 15.8062 6.34324 15.8236 6.34324C15.8409 6.3258 15.8583 6.3258 15.8757 6.30836C15.9105 6.29092 15.9453 6.27347 15.9627 6.27347C16.0148 6.25603 16.0496 6.23859 16.1018 6.22115C16.1192 6.22115 16.1192 6.22115 16.1366 6.2037C16.1366 6.2037 16.1366 6.2037 16.1539 6.2037C16.2061 6.18626 16.2757 6.16882 16.3278 6.15137C16.3452 6.15137 16.3626 6.13393 16.38 6.13393C16.4148 6.11649 16.4669 6.09905 16.5017 6.09905L16.5191 6.09905C16.8147 6.01183 17.1103 5.9595 17.4233 5.94206C17.5276 5.94206 17.6146 5.92462 17.7189 5.92462C17.8233 5.92462 17.945 5.92462 18.0493 5.94206C18.1015 5.94206 18.1363 5.94206 18.1884 5.9595L18.2058 5.9595C18.2058 5.9595 18.2058 5.9595 18.2232 5.9595L18.2406 5.9595C18.258 5.9595 18.258 5.9595 18.2754 5.9595L18.2927 5.9595C18.3275 5.9595 18.3449 5.97695 18.3797 5.97695C18.3971 5.97695 18.3971 5.97695 18.4145 5.97695C18.6231 6.02927 18.797 6.09905 18.9709 6.2037C19.0057 6.22115 19.0231 6.23859 19.0579 6.25603C19.0926 6.27347 19.1274 6.30836 19.1622 6.3258C19.1622 6.3258 19.1796 6.3258 19.1796 6.34324C19.2144 6.36069 19.2317 6.37813 19.2665 6.39557C19.3013 6.43046 19.3535 6.4479 19.3882 6.48279C19.4056 6.50023 19.4404 6.51767 19.4578 6.53512C19.4578 6.53512 19.4578 6.53512 19.4752 6.55256C19.5795 6.62233 19.6665 6.70954 19.7534 6.79676C19.7708 6.8142 19.8056 6.84909 19.823 6.86653C19.8577 6.90141 19.8925 6.9363 19.9273 6.97119C19.9447 6.98863 19.9447 6.98863 19.9621 7.00607C19.9795 7.02351 19.9795 7.02351 19.9968 7.04096C20.0664 7.12817 20.136 7.21538 20.2055 7.3026C20.2229 7.33748 20.2577 7.35493 20.2751 7.38981C20.2924 7.4247 20.3098 7.44214 20.3272 7.47703C20.3446 7.51191 20.362 7.52936 20.3794 7.56424C20.3968 7.58168 20.4142 7.61657 20.4142 7.63401C20.4316 7.6689 20.4489 7.68634 20.4489 7.72123C20.4663 7.77355 20.5011 7.82588 20.5185 7.86077C20.5359 7.9131 20.5533 7.96543 20.5707 8.01775C20.6054 8.12241 20.6402 8.22707 20.6576 8.33172C20.6576 8.34917 20.675 8.38405 20.675 8.4015C20.675 8.43638 20.675 8.45382 20.6924 8.48871C20.6924 8.54104 20.7098 8.59337 20.7098 8.64569C20.7098 8.68058 20.7098 8.69802 20.7098 8.73291C20.7272 8.75035 20.7272 8.78524 20.7272 8.82012Z" fill="url(#paint22_linear_1596_4932)"/>
<path d="M20.6747 8.31426C20.6399 8.31426 20.24 7.68632 20.1704 7.61655C19.9966 7.44212 19.8053 7.28513 19.5966 7.18048C19.2141 6.98861 18.7967 6.91883 18.3794 6.95372C16.8492 7.07582 15.7363 8.19216 14.8843 9.37827C14.38 10.076 13.8931 10.7737 13.3889 11.4365C13.3193 11.5237 13.2497 11.6109 13.1976 11.6982C13.1628 11.733 13.128 11.7854 13.1106 11.8203C13.0237 11.9249 12.9541 12.0296 12.8672 12.1168C12.8324 12.1517 12.7976 12.204 12.7629 12.2389C12.6585 12.3784 12.5368 12.5005 12.4325 12.6401C12.3803 12.7098 12.3108 12.7796 12.2586 12.8494C12.2238 12.8843 12.189 12.9192 12.1543 12.9715C12.0499 13.0936 11.9456 13.2331 11.8239 13.3552C11.7195 13.4773 11.6152 13.582 11.5283 13.7041C11.4935 13.739 11.4587 13.7913 11.4239 13.8262C11.4065 13.8611 11.3718 13.8785 11.3544 13.896C11.337 13.9134 11.3196 13.9308 11.3196 13.9483L11.3022 13.9308C11.2848 13.9134 11.2674 13.8785 11.25 13.8611C11.2153 13.8262 11.1805 13.7913 11.1631 13.7564C11.0414 13.5994 10.9023 13.4424 10.7805 13.2855C10.7284 13.2331 10.6762 13.1634 10.6414 13.111C10.5893 13.0587 10.5545 12.9889 10.5023 12.9366C10.4849 12.9017 10.4502 12.8843 10.4328 12.8494C10.2937 12.6924 10.1719 12.518 10.0328 12.361C9.91111 12.2214 9.78939 12.0645 9.68506 11.9249C9.70245 11.9075 9.71984 11.89 9.73722 11.8726C9.772 11.8377 9.80678 11.8028 9.84156 11.7854C9.85895 11.7679 9.87633 11.7505 9.89372 11.733C9.9285 11.6982 9.94589 11.6807 9.98067 11.6458C10.0154 11.6109 10.0502 11.5761 10.085 11.5412C10.1024 11.5237 10.1198 11.5063 10.1372 11.4888C10.1546 11.4714 10.1719 11.454 10.1719 11.454L10.1893 11.4365C10.2415 11.4016 10.2763 11.3493 10.3111 11.3144C10.3632 11.2621 10.398 11.2272 10.4502 11.1749C10.4502 11.1749 10.4502 11.1749 10.4676 11.1574C10.4849 11.1225 10.5197 11.1051 10.5371 11.0877C10.5545 11.0702 10.5719 11.0528 10.5719 11.0528C10.5893 11.0353 10.6067 11.0179 10.624 11.0004C10.6762 10.9481 10.711 10.9132 10.7458 10.8609C10.8327 10.7562 10.9197 10.669 11.024 10.5644C11.0414 10.5469 11.0588 10.5295 11.0762 10.5121C11.0935 10.4946 11.1283 10.4597 11.1457 10.4423C11.1979 10.3725 11.2674 10.3202 11.3196 10.2504C11.3718 10.1981 11.4065 10.1632 11.4413 10.1109C11.4413 10.1109 11.4587 10.1109 11.4587 10.0934L11.5804 9.97132C11.5804 9.95388 11.5978 9.95388 11.6152 9.93644C11.7195 9.83178 11.8239 9.70968 11.9282 9.60503C12.0673 9.46548 12.2064 9.32594 12.3281 9.1864C12.3803 9.13407 12.4325 9.0643 12.502 9.01197C12.5368 8.97708 12.5716 8.9422 12.6064 8.90731C12.6411 8.87243 12.6933 8.8201 12.7281 8.78521C12.815 8.698 12.902 8.61079 13.0063 8.50613C13.0411 8.47124 13.0759 8.43636 13.1106 8.40147C13.215 8.31426 13.3019 8.2096 13.4062 8.12239C13.441 8.0875 13.4932 8.03517 13.5454 8.00029L13.5627 7.98285C13.7192 7.8433 13.8583 7.7212 14.0148 7.58166C14.0496 7.54678 14.0844 7.52933 14.1192 7.49445C14.154 7.45956 14.1887 7.44212 14.2235 7.40723C14.2583 7.37235 14.2931 7.3549 14.3278 7.32002C14.3278 7.32002 14.3278 7.32002 14.3452 7.30258C14.3626 7.28513 14.3974 7.26769 14.4148 7.25025C14.4322 7.2328 14.467 7.21536 14.4843 7.19792C14.5191 7.16303 14.5713 7.12815 14.6061 7.11071C14.6582 7.07582 14.7104 7.04093 14.7452 7.00605C14.7799 6.98861 14.7973 6.97116 14.8321 6.93628C14.8669 6.91883 14.9017 6.88395 14.9364 6.86651C15.0756 6.77929 15.2147 6.69208 15.3712 6.60486C15.4059 6.58742 15.4581 6.55254 15.4929 6.53509C15.5451 6.51765 15.5798 6.48276 15.632 6.46532C15.6146 6.43044 15.6494 6.41299 15.7016 6.39555C15.7189 6.37811 15.7537 6.37811 15.7711 6.36066C15.7885 6.36066 15.8059 6.34322 15.8233 6.34322C15.8407 6.32578 15.858 6.32578 15.8754 6.30834C15.9102 6.29089 15.945 6.27345 15.9624 6.27345C15.9972 6.25601 16.0145 6.25601 16.0493 6.23857C16.0667 6.23857 16.0841 6.22112 16.1015 6.22112C16.1189 6.22112 16.1189 6.22112 16.1363 6.20368C16.1363 6.20368 16.1363 6.20368 16.1537 6.20368C16.2058 6.18624 16.2406 6.16879 16.2928 6.15135C16.3102 6.15135 16.3102 6.15135 16.3275 6.13391C16.3449 6.13391 16.3623 6.11647 16.3797 6.11647C16.4145 6.09902 16.4667 6.08158 16.5014 6.08158L16.5188 6.08158L16.5362 6.08158L16.5536 6.08158C16.571 6.08158 16.5884 6.06414 16.6058 6.06414C16.6405 6.06414 16.6579 6.04669 16.6927 6.04669C16.7101 6.04669 16.7275 6.02925 16.7623 6.02925C16.797 6.02925 16.8144 6.01181 16.8492 6.01181C16.8666 6.01181 16.884 6.01181 16.9014 5.99437C16.9188 5.99437 16.9188 5.99437 16.9361 5.99437L16.9535 5.99437C16.9883 5.99437 17.0231 5.97692 17.0579 5.97692C17.0579 5.97692 17.0579 5.97692 17.0753 5.97692C17.11 5.97692 17.1448 5.95948 17.1796 5.95948C17.1796 5.95948 17.1796 5.95948 17.197 5.95948L17.2144 5.95948C17.2318 5.95948 17.2491 5.95948 17.2665 5.95948C17.3013 5.95948 17.3187 5.95948 17.3361 5.95948L17.3535 5.95948L17.3709 5.95948C17.3709 5.95948 17.3709 5.95948 17.3883 5.95948C17.4056 5.95948 17.4404 5.95948 17.4578 5.95948C17.4752 5.95948 17.4752 5.95948 17.4926 5.95948C17.5274 5.95948 17.5448 5.95948 17.5795 5.95948C17.6143 5.95948 17.6491 5.95948 17.6839 5.95948C17.7708 5.95948 17.8577 5.95948 17.9273 5.95948C17.9795 5.95948 18.0316 5.95948 18.0664 5.97692C18.1012 5.97692 18.1186 5.97692 18.136 5.99437L18.1534 5.99437C18.1534 5.99437 18.1534 5.99437 18.1707 5.99437L18.1881 5.99437C18.2055 5.99437 18.2055 5.99437 18.2229 5.99437L18.2403 5.99437C18.2751 5.99437 18.2925 6.01181 18.3272 6.01181C18.3446 6.01181 18.3446 6.01181 18.362 6.01181C18.3794 6.01181 18.3968 6.01181 18.3968 6.01181C18.4316 6.01181 18.4664 6.02925 18.5011 6.04669C18.5359 6.06414 18.5707 6.06414 18.6055 6.08158C18.6229 6.08158 18.7098 6.13391 18.8663 6.22112C18.8837 6.22112 18.8837 6.23857 18.9011 6.23857C18.9358 6.25601 18.9532 6.27345 18.988 6.29089C19.0228 6.30834 19.0576 6.34322 19.0923 6.36066C19.0923 6.36066 19.1097 6.36066 19.1097 6.37811C19.1445 6.39555 19.1619 6.41299 19.1967 6.43044C19.2315 6.46532 19.2836 6.48276 19.3184 6.51765C19.3358 6.53509 19.3706 6.55254 19.388 6.56998C19.388 6.56998 19.388 6.56998 19.4053 6.58742C19.5097 6.65719 19.5966 6.74441 19.6836 6.83162C19.701 6.84906 19.7357 6.88395 19.7531 6.90139C19.7879 6.93628 19.8227 6.97116 19.8574 7.00605C19.8748 7.02349 19.8748 7.02349 19.8922 7.04093C19.9096 7.05838 19.9096 7.05838 19.927 7.07582C19.9966 7.16303 20.0661 7.25025 20.1357 7.33746C20.1531 7.37235 20.1878 7.38979 20.2052 7.42468C20.2226 7.45956 20.24 7.477 20.2574 7.51189C20.2748 7.54677 20.2922 7.56422 20.3096 7.5991C20.3269 7.61655 20.3443 7.65143 20.3443 7.66887C20.3617 7.70376 20.3791 7.7212 20.3791 7.75609C20.3965 7.80842 20.4313 7.86075 20.4487 7.89563C20.4661 7.94796 20.4834 8.00029 20.5008 8.05262C20.6226 8.10494 20.6573 8.2096 20.6747 8.31426Z" fill="url(#paint23_linear_1596_4932)"/>
<path d="M17.4235 5.90713C17.1105 6.06412 16.8149 6.2211 16.5193 6.41298C16.2237 6.60485 15.9628 6.81416 15.6846 7.04092C14.7109 7.82584 13.9458 8.9073 13.3371 9.97131C13.1807 10.2504 13.0242 10.5469 12.8677 10.826C12.7807 10.983 12.7112 11.14 12.6242 11.297C12.3982 11.7679 12.1547 12.2389 11.9113 12.6924C11.8939 12.7273 11.8765 12.7622 11.8591 12.7796C11.72 13.0238 11.5809 13.268 11.4418 13.4948C11.3548 13.6169 11.2679 13.7215 11.181 13.8436C11.1462 13.8087 11.1114 13.7738 11.094 13.739C10.9723 13.582 10.8332 13.425 10.7115 13.268C10.6593 13.2157 10.6071 13.1459 10.5723 13.0936C10.5202 13.0412 10.4854 12.9715 10.4332 12.9191C10.4158 12.8843 10.3811 12.8668 10.3637 12.8319C10.2246 12.6749 10.1029 12.5005 9.96374 12.3435C9.84202 12.204 9.7203 12.047 9.61597 11.9075C9.63336 11.89 9.65074 11.8726 9.66813 11.8551C9.70291 11.8202 9.73769 11.7854 9.77247 11.7679C9.78985 11.7505 9.80724 11.733 9.82463 11.7156C9.85941 11.6807 9.8768 11.6633 9.91157 11.6284C9.94635 11.5935 9.98113 11.5586 10.0159 11.5237C10.0333 11.5063 10.0507 11.4888 10.0681 11.4714C10.0855 11.4539 10.1029 11.4365 10.1029 11.4365L10.1202 11.4191C10.1724 11.3842 10.2072 11.3318 10.242 11.297C10.2941 11.2446 10.3289 11.2097 10.3811 11.1574C10.3811 11.1574 10.3811 11.1574 10.3985 11.14C10.4158 11.1051 10.4506 11.0876 10.468 11.0702C10.4854 11.0528 10.5028 11.0353 10.5028 11.0353C10.5202 11.0179 10.5376 11.0004 10.555 10.983C10.6071 10.9307 10.6419 10.8958 10.6767 10.8434C10.7636 10.7388 10.8506 10.6516 10.9549 10.5469C10.9723 10.5295 10.9897 10.512 11.0071 10.4946C11.0245 10.4771 11.0592 10.4423 11.0766 10.4248C11.1288 10.355 11.1983 10.3027 11.2505 10.2329C11.3027 10.1806 11.3374 10.1457 11.3722 10.0934C11.3722 10.0934 11.3896 10.0934 11.3896 10.076L11.5113 9.95386C11.5113 9.93642 11.5287 9.93642 11.5461 9.91898C11.6504 9.81432 11.7548 9.69222 11.8591 9.58756C11.9982 9.44802 12.1373 9.30848 12.259 9.16894C12.3112 9.11661 12.3634 9.04684 12.4329 8.99451C12.4677 8.95962 12.5025 8.92474 12.5373 8.88985C12.572 8.85497 12.6242 8.80264 12.659 8.76775C12.7459 8.68054 12.8329 8.59333 12.9372 8.48867C12.972 8.45378 13.0068 8.4189 13.0415 8.38401C13.1459 8.2968 13.2328 8.19214 13.3371 8.10493C13.3719 8.07004 13.4241 8.01771 13.4763 7.98283L13.4936 7.96538C13.6501 7.82584 13.7893 7.70374 13.9458 7.5642C13.9805 7.52931 14.0153 7.51187 14.0501 7.47699C14.0849 7.4421 14.1196 7.42466 14.1544 7.38977C14.1892 7.35489 14.224 7.33744 14.2587 7.30256C14.2587 7.30256 14.2587 7.30256 14.2761 7.28512C14.2935 7.26767 14.3283 7.25023 14.3457 7.23279C14.3631 7.21534 14.3979 7.1979 14.4152 7.18046C14.45 7.14557 14.5022 7.11069 14.537 7.09324C14.5891 7.05836 14.6413 7.02347 14.6761 6.98859C14.7109 6.97115 14.7282 6.9537 14.763 6.91882C14.7978 6.90137 14.8326 6.86649 14.8674 6.84905C15.0065 6.76183 15.1456 6.67462 15.3021 6.5874C15.3368 6.56996 15.389 6.53508 15.4238 6.51763C15.476 6.50019 15.5107 6.4653 15.5629 6.44786C15.6151 6.43042 15.6498 6.41298 15.702 6.39553C15.7194 6.37809 15.7542 6.37809 15.7716 6.36065C15.789 6.36065 15.8063 6.3432 15.8237 6.3432C15.8411 6.32576 15.8585 6.32576 15.8759 6.30832C15.9107 6.29088 15.9455 6.27343 15.9628 6.27343C15.9976 6.25599 16.015 6.25599 16.0498 6.23855C16.0672 6.23855 16.0846 6.2211 16.102 6.2211C16.1193 6.2211 16.1193 6.2211 16.1367 6.20366C16.1367 6.20366 16.1367 6.20366 16.1541 6.20366C16.2063 6.18622 16.2411 6.16878 16.2932 6.15133C16.3106 6.15133 16.3106 6.15133 16.328 6.13389C16.3454 6.13389 16.3628 6.11645 16.3802 6.11645C16.4149 6.09901 16.4671 6.08156 16.5019 6.08156L16.5193 6.08156C16.5367 6.08156 16.5541 6.08156 16.5541 6.06412C16.5714 6.06412 16.5888 6.04668 16.6062 6.04668C16.641 6.04668 16.6584 6.02923 16.6932 6.02923C16.7106 6.02923 16.7279 6.01179 16.7627 6.01179C16.7975 6.01179 16.8149 5.99435 16.8497 5.99435C16.8671 5.99435 16.8844 5.99435 16.9018 5.97691C16.9192 5.97691 16.9192 5.97691 16.9366 5.97691L16.954 5.97691C16.9888 5.97691 17.0236 5.95946 17.0583 5.95946C17.0583 5.95946 17.0583 5.95946 17.0757 5.95946C17.1105 5.95946 17.1453 5.94202 17.1801 5.94202C17.1801 5.94202 17.1801 5.94202 17.1974 5.94202L17.2148 5.94202C17.2844 5.90713 17.3713 5.88969 17.4235 5.90713Z" fill="url(#paint24_linear_1596_4932)"/>
<path d="M11.7024 9.74486C11.6503 9.83208 11.6155 9.90185 11.5633 9.98906C11.5459 10.0414 11.5112 10.0763 11.4938 10.1286C11.372 10.3554 11.2677 10.5821 11.1634 10.8089C10.9895 11.1752 10.8504 11.5589 10.7113 11.9427C10.6069 12.2392 10.4852 12.5357 10.3809 12.8322C10.2418 12.6753 10.1201 12.5008 9.98095 12.3438C9.85923 12.2043 9.73751 12.0473 9.63318 11.9078C9.65057 11.8903 9.66796 11.8729 9.68534 11.8554C9.72012 11.8206 9.7549 11.7857 9.78968 11.7682C9.80707 11.7508 9.82445 11.7333 9.84184 11.7159C9.87662 11.681 9.89401 11.6636 9.92879 11.6287C9.96356 11.5938 9.99834 11.5589 10.0331 11.524C10.0505 11.5066 10.0679 11.4891 10.0853 11.4717C10.1027 11.4543 10.1201 11.4368 10.1201 11.4368C10.1722 11.3845 10.2244 11.3322 10.2592 11.2973C10.3113 11.2449 10.3461 11.2101 10.3983 11.1577C10.3983 11.1577 10.3983 11.1577 10.4157 11.1403C10.4331 11.1054 10.4678 11.088 10.4852 11.0705C10.5026 11.0531 10.52 11.0356 10.52 11.0356C10.5374 11.0182 10.5548 11.0007 10.5722 10.9833C10.6243 10.931 10.6591 10.8961 10.6939 10.8438C10.7808 10.7391 10.8678 10.6519 10.9721 10.5472C10.9895 10.5298 11.0069 10.5123 11.0243 10.4949C11.0417 10.4775 11.0764 10.4426 11.0938 10.4251C11.146 10.3554 11.2155 10.303 11.2677 10.2333C11.3199 10.1809 11.3547 10.146 11.3894 10.0937C11.3894 10.0937 11.4068 10.0937 11.4068 10.0763L11.5285 9.95417L11.7024 9.74486Z" fill="url(#paint25_linear_1596_4932)"/>
<path d="M18.8666 11.7507C18.797 11.7856 18.7275 11.7856 18.6579 11.7507C18.6231 11.7333 18.6057 11.6984 18.571 11.6635C18.5188 11.5763 18.5362 11.4542 18.6231 11.4019C18.6405 11.4019 18.6405 11.3845 18.6579 11.3845C18.7622 11.3321 18.884 11.367 18.9535 11.4717C19.0057 11.5589 18.9709 11.6984 18.8666 11.7507Z" fill="url(#paint26_linear_1596_4932)"/>
<path d="M18.3103 11.5067C18.3679 11.5067 18.4147 11.4598 18.4147 11.402C18.4147 11.3442 18.3679 11.2974 18.3103 11.2974C18.2527 11.2974 18.206 11.3442 18.206 11.402C18.206 11.4598 18.2527 11.5067 18.3103 11.5067Z" fill="url(#paint27_linear_1596_4932)"/>
<path d="M18.9536 12.344C18.8667 12.3963 18.7623 12.3614 18.7102 12.2742C18.658 12.187 18.6928 12.0824 18.7797 12.03C18.8667 11.9777 18.971 12.0126 19.0232 12.0998C19.0753 12.1696 19.058 12.2917 18.9536 12.344Z" fill="url(#paint28_linear_1596_4932)"/>
<path d="M18.6582 11.7507C18.6582 11.6286 18.6408 11.5065 18.6234 11.4018C18.6408 11.4018 18.6408 11.3844 18.6582 11.3844C18.7625 11.3321 18.8842 11.367 18.9538 11.4716C19.006 11.5763 18.9712 11.6984 18.8669 11.7681C18.7973 11.7856 18.7104 11.7856 18.6582 11.7507Z" fill="url(#paint29_linear_1596_4932)"/>
<path d="M19.0407 12.0822C19.0929 12.1694 19.0581 12.2741 18.9711 12.3264C18.8842 12.3787 18.7799 12.3438 18.7277 12.2566C18.6755 12.1694 18.7103 12.0648 18.7973 12.0124C18.8842 11.9601 18.9885 11.995 19.0407 12.0822Z" fill="url(#paint30_linear_1596_4932)"/>
</g>
<defs>
<linearGradient id="paint0_linear_1596_4932" x1="11.8806" y1="10.1836" x2="11.332" y2="10.0784" gradientUnits="userSpaceOnUse">
<stop offset="0.00313457" stop-color="#FBFBFB"/>
<stop offset="0.0323279" stop-color="#FBF5E3"/>
<stop offset="0.0940977" stop-color="#FCE5A5"/>
<stop offset="0.1828" stop-color="#FDCB43"/>
<stop offset="0.1929" stop-color="#FDC837"/>
<stop offset="0.2631" stop-color="#FDB03A"/>
<stop offset="0.4105" stop-color="#FD7342"/>
<stop offset="0.4526" stop-color="#FD6044"/>
<stop offset="0.5966" stop-color="#EE4857"/>
<stop offset="0.7111" stop-color="#E03269"/>
<stop offset="0.756" stop-color="#C82E64"/>
<stop offset="0.8509" stop-color="#8A2457"/>
<stop offset="0.9872" stop-color="#281443"/>
<stop offset="1" stop-color="#1E1241"/>
</linearGradient>
<linearGradient id="paint1_linear_1596_4932" x1="12.2223" y1="12.2487" x2="20.9777" y2="18.1329" gradientUnits="userSpaceOnUse">
<stop offset="0.00313457" stop-color="#FBFBFB"/>
<stop offset="0.0323279" stop-color="#FBF5E3"/>
<stop offset="0.0940977" stop-color="#FCE5A5"/>
<stop offset="0.1828" stop-color="#FDCB43"/>
<stop offset="0.1929" stop-color="#FDC837"/>
<stop offset="0.2631" stop-color="#FDB03A"/>
<stop offset="0.4105" stop-color="#FD7342"/>
<stop offset="0.4526" stop-color="#FD6044"/>
<stop offset="0.5966" stop-color="#EE4857"/>
<stop offset="0.7111" stop-color="#E03269"/>
<stop offset="0.756" stop-color="#C82E64"/>
<stop offset="0.8509" stop-color="#8A2457"/>
<stop offset="0.9872" stop-color="#281443"/>
<stop offset="1" stop-color="#1E1241"/>
</linearGradient>
<linearGradient id="paint2_linear_1596_4932" x1="9.61718" y1="12.987" x2="18.4907" y2="12.987" gradientUnits="userSpaceOnUse">
<stop offset="0.00313457" stop-color="#FBFBFB"/>
<stop offset="0.0323279" stop-color="#FBF5E3"/>
<stop offset="0.0940977" stop-color="#FCE5A5"/>
<stop offset="0.1828" stop-color="#FDCB43"/>
<stop offset="0.1929" stop-color="#FDC837"/>
<stop offset="0.2631" stop-color="#FDB03A"/>
<stop offset="0.4105" stop-color="#FD7342"/>
<stop offset="0.4526" stop-color="#FD6044"/>
<stop offset="0.5966" stop-color="#EE4857"/>
<stop offset="0.7111" stop-color="#E03269"/>
<stop offset="0.756" stop-color="#C82E64"/>
<stop offset="0.8509" stop-color="#8A2457"/>
<stop offset="0.9872" stop-color="#281443"/>
<stop offset="1" stop-color="#1E1241"/>
</linearGradient>
<linearGradient id="paint3_linear_1596_4932" x1="15.901" y1="13.0261" x2="7.95614" y2="9.98672" gradientUnits="userSpaceOnUse">
<stop offset="0.00313457" stop-color="#FBFBFB"/>
<stop offset="0.0323279" stop-color="#FBF5E3"/>
<stop offset="0.0940977" stop-color="#FCE5A5"/>
<stop offset="0.1828" stop-color="#FDCB43"/>
<stop offset="0.1929" stop-color="#FDC837"/>
<stop offset="0.2631" stop-color="#FDB03A"/>
<stop offset="0.4105" stop-color="#FD7342"/>
<stop offset="0.4526" stop-color="#FD6044"/>
<stop offset="0.5966" stop-color="#EE4857"/>
<stop offset="0.7111" stop-color="#E03269"/>
<stop offset="0.756" stop-color="#C82E64"/>
<stop offset="0.8509" stop-color="#8A2457"/>
<stop offset="0.9872" stop-color="#281443"/>
<stop offset="1" stop-color="#1E1241"/>
</linearGradient>
<linearGradient id="paint4_linear_1596_4932" x1="3.3578" y1="8.76377" x2="11.0553" y2="13.937" gradientUnits="userSpaceOnUse">
<stop offset="0.00313457" stop-color="#FBFBFB"/>
<stop offset="0.0323279" stop-color="#FBF5E3"/>
<stop offset="0.0940977" stop-color="#FCE5A5"/>
<stop offset="0.1828" stop-color="#FDCB43"/>
<stop offset="0.1929" stop-color="#FDC837"/>
<stop offset="0.2631" stop-color="#FDB03A"/>
<stop offset="0.4105" stop-color="#FD7342"/>
<stop offset="0.4526" stop-color="#FD6044"/>
<stop offset="0.5966" stop-color="#EE4857"/>
<stop offset="0.7111" stop-color="#E03269"/>
<stop offset="0.756" stop-color="#C82E64"/>
<stop offset="0.8509" stop-color="#8A2457"/>
<stop offset="0.9872" stop-color="#281443"/>
<stop offset="1" stop-color="#1E1241"/>
</linearGradient>
<linearGradient id="paint5_linear_1596_4932" x1="0.815986" y1="9.36453" x2="11.2161" y2="9.36453" gradientUnits="userSpaceOnUse">
<stop offset="0.00313457" stop-color="#FBFBFB"/>
<stop offset="0.0323279" stop-color="#FBF5E3"/>
<stop offset="0.0940977" stop-color="#FCE5A5"/>
<stop offset="0.1828" stop-color="#FDCB43"/>
<stop offset="0.1929" stop-color="#FDC837"/>
<stop offset="0.2631" stop-color="#FDB03A"/>
<stop offset="0.4105" stop-color="#FD7342"/>
<stop offset="0.4526" stop-color="#FD6044"/>
<stop offset="0.5966" stop-color="#EE4857"/>
<stop offset="0.7111" stop-color="#E03269"/>
<stop offset="0.756" stop-color="#C82E64"/>
<stop offset="0.8509" stop-color="#8A2457"/>
<stop offset="0.9872" stop-color="#281443"/>
<stop offset="1" stop-color="#1E1241"/>
</linearGradient>
<linearGradient id="paint6_linear_1596_4932" x1="10.4101" y1="11.8477" x2="-2.59505" y2="6.87248" gradientUnits="userSpaceOnUse">
<stop offset="0.00313457" stop-color="#FBFBFB"/>
<stop offset="0.0323279" stop-color="#FBF5E3"/>
<stop offset="0.0940977" stop-color="#FCE5A5"/>
<stop offset="0.1828" stop-color="#FDCB43"/>
<stop offset="0.1929" stop-color="#FDC837"/>
<stop offset="0.2631" stop-color="#FDB03A"/>
<stop offset="0.4105" stop-color="#FD7342"/>
<stop offset="0.4526" stop-color="#FD6044"/>
<stop offset="0.5966" stop-color="#EE4857"/>
<stop offset="0.7111" stop-color="#E03269"/>
<stop offset="0.756" stop-color="#C82E64"/>
<stop offset="0.8509" stop-color="#8A2457"/>
<stop offset="0.9872" stop-color="#281443"/>
<stop offset="1" stop-color="#1E1241"/>
</linearGradient>
<linearGradient id="paint7_linear_1596_4932" x1="10.8389" y1="10.7235" x2="-0.295003" y2="8.589" gradientUnits="userSpaceOnUse">
<stop offset="0.00313457" stop-color="#FBFBFB"/>
<stop offset="0.0323279" stop-color="#FBF5E3"/>
<stop offset="0.0940977" stop-color="#FCE5A5"/>
<stop offset="0.1828" stop-color="#FDCB43"/>
<stop offset="0.1929" stop-color="#FDC837"/>
<stop offset="0.2631" stop-color="#FDB03A"/>
<stop offset="0.4105" stop-color="#FD7342"/>
<stop offset="0.4526" stop-color="#FD6044"/>
<stop offset="0.5966" stop-color="#EE4857"/>
<stop offset="0.7111" stop-color="#E03269"/>
<stop offset="0.756" stop-color="#C82E64"/>
<stop offset="0.8509" stop-color="#8A2457"/>
<stop offset="0.9872" stop-color="#281443"/>
<stop offset="1" stop-color="#1E1241"/>
</linearGradient>
<linearGradient id="paint8_linear_1596_4932" x1="8.84515" y1="6.12162" x2="0.397976" y2="10.8153" gradientUnits="userSpaceOnUse">
<stop offset="0.00313457" stop-color="#FBFBFB"/>
<stop offset="0.0323279" stop-color="#FBF5E3"/>
<stop offset="0.0940977" stop-color="#FCE5A5"/>
<stop offset="0.1828" stop-color="#FDCB43"/>
<stop offset="0.1929" stop-color="#FDC837"/>
<stop offset="0.2631" stop-color="#FDB03A"/>
<stop offset="0.4105" stop-color="#FD7342"/>
<stop offset="0.4526" stop-color="#FD6044"/>
<stop offset="0.5966" stop-color="#EE4857"/>
<stop offset="0.7111" stop-color="#E03269"/>
<stop offset="0.756" stop-color="#C82E64"/>
<stop offset="0.8509" stop-color="#8A2457"/>
<stop offset="0.9872" stop-color="#281443"/>
<stop offset="1" stop-color="#1E1241"/>
</linearGradient>
<linearGradient id="paint9_linear_1596_4932" x1="-0.469163" y1="7.15188" x2="5.39924" y2="4.57603" gradientUnits="userSpaceOnUse">
<stop offset="0.00313457" stop-color="#FBFBFB"/>
<stop offset="0.0323279" stop-color="#FBF5E3"/>
<stop offset="0.0940977" stop-color="#FCE5A5"/>
<stop offset="0.1828" stop-color="#FDCB43"/>
<stop offset="0.1929" stop-color="#FDC837"/>
<stop offset="0.2631" stop-color="#FDB03A"/>
<stop offset="0.4105" stop-color="#FD7342"/>
<stop offset="0.4526" stop-color="#FD6044"/>
<stop offset="0.5966" stop-color="#EE4857"/>
<stop offset="0.7111" stop-color="#E03269"/>
<stop offset="0.756" stop-color="#C82E64"/>
<stop offset="0.8509" stop-color="#8A2457"/>
<stop offset="0.9872" stop-color="#281443"/>
<stop offset="1" stop-color="#1E1241"/>
</linearGradient>
<linearGradient id="paint10_linear_1596_4932" x1="-0.383668" y1="7.34704" x2="5.48475" y2="4.77121" gradientUnits="userSpaceOnUse">
<stop offset="0.00313457" stop-color="#FBFBFB"/>
<stop offset="0.0323279" stop-color="#FBF5E3"/>
<stop offset="0.0940977" stop-color="#FCE5A5"/>
<stop offset="0.1828" stop-color="#FDCB43"/>
<stop offset="0.1929" stop-color="#FDC837"/>
<stop offset="0.2631" stop-color="#FDB03A"/>
<stop offset="0.4105" stop-color="#FD7342"/>
<stop offset="0.4526" stop-color="#FD6044"/>
<stop offset="0.5966" stop-color="#EE4857"/>
<stop offset="0.7111" stop-color="#E03269"/>
<stop offset="0.756" stop-color="#C82E64"/>
<stop offset="0.8509" stop-color="#8A2457"/>
<stop offset="0.9872" stop-color="#281443"/>
<stop offset="1" stop-color="#1E1241"/>
</linearGradient>
<linearGradient id="paint11_linear_1596_4932" x1="-0.634746" y1="6.7743" x2="5.23365" y2="4.19847" gradientUnits="userSpaceOnUse">
<stop offset="0.00313457" stop-color="#FBFBFB"/>
<stop offset="0.0323279" stop-color="#FBF5E3"/>
<stop offset="0.0940977" stop-color="#FCE5A5"/>
<stop offset="0.1828" stop-color="#FDCB43"/>
<stop offset="0.1929" stop-color="#FDC837"/>
<stop offset="0.2631" stop-color="#FDB03A"/>
<stop offset="0.4105" stop-color="#FD7342"/>
<stop offset="0.4526" stop-color="#FD6044"/>
<stop offset="0.5966" stop-color="#EE4857"/>
<stop offset="0.7111" stop-color="#E03269"/>
<stop offset="0.756" stop-color="#C82E64"/>
<stop offset="0.8509" stop-color="#8A2457"/>
<stop offset="0.9872" stop-color="#281443"/>
<stop offset="1" stop-color="#1E1241"/>
</linearGradient>
<linearGradient id="paint12_linear_1596_4932" x1="10.9101" y1="14.2878" x2="10.9328" y2="14.4127" gradientUnits="userSpaceOnUse">
<stop offset="0.0102588" stop-color="#5618B4"/>
<stop offset="0.1815" stop-color="#9044E1"/>
<stop offset="0.2711" stop-color="#B05DFA"/>
<stop offset="0.3115" stop-color="#9868FA"/>
<stop offset="0.3963" stop-color="#5B84F9"/>
<stop offset="0.4673" stop-color="#239EF9"/>
<stop offset="0.6964" stop-color="#239EF9"/>
<stop offset="0.7768" stop-color="#1CA3E1"/>
<stop offset="0.9457" stop-color="#09AFA4"/>
<stop offset="0.9863" stop-color="#04B294"/>
</linearGradient>
<linearGradient id="paint13_linear_1596_4932" x1="5.03174" y1="10.4918" x2="9.23557" y2="33.5411" gradientUnits="userSpaceOnUse">
<stop offset="0.0105809" stop-color="#4909C6"/>
<stop offset="0.2483" stop-color="#4C43F7"/>
<stop offset="0.2875" stop-color="#4D4DFF"/>
<stop offset="0.4004" stop-color="#4165FD"/>
<stop offset="0.6219" stop-color="#239EF9"/>
<stop offset="0.7229" stop-color="#1CA3E1"/>
<stop offset="0.9353" stop-color="#09AFA4"/>
<stop offset="0.9863" stop-color="#04B294"/>
</linearGradient>
<linearGradient id="paint14_linear_1596_4932" x1="13.2516" y1="14.329" x2="-0.612305" y2="11.6015" gradientUnits="userSpaceOnUse">
<stop offset="0.0105809" stop-color="#4909C6"/>
<stop offset="0.2483" stop-color="#4C43F7"/>
<stop offset="0.2875" stop-color="#4D4DFF"/>
<stop offset="0.4004" stop-color="#4165FD"/>
<stop offset="0.6219" stop-color="#239EF9"/>
<stop offset="0.7229" stop-color="#1CA3E1"/>
<stop offset="0.9353" stop-color="#09AFA4"/>
<stop offset="0.9863" stop-color="#04B294"/>
</linearGradient>
<linearGradient id="paint15_linear_1596_4932" x1="3.15812" y1="14.7309" x2="7.20142" y2="9.46189" gradientUnits="userSpaceOnUse">
<stop offset="0.0105809" stop-color="#4909C6"/>
<stop offset="0.2483" stop-color="#4C43F7"/>
<stop offset="0.2875" stop-color="#4D4DFF"/>
<stop offset="0.4004" stop-color="#4165FD"/>
<stop offset="0.6219" stop-color="#239EF9"/>
<stop offset="0.7229" stop-color="#1CA3E1"/>
<stop offset="0.9353" stop-color="#09AFA4"/>
<stop offset="0.9863" stop-color="#04B294"/>
</linearGradient>
<linearGradient id="paint16_linear_1596_4932" x1="4.0154" y1="12.8806" x2="22.0327" y2="-3.37347" gradientUnits="userSpaceOnUse">
<stop offset="0.0105809" stop-color="#4909C6"/>
<stop offset="0.2483" stop-color="#4C43F7"/>
<stop offset="0.2875" stop-color="#4D4DFF"/>
<stop offset="0.4004" stop-color="#4165FD"/>
<stop offset="0.6219" stop-color="#239EF9"/>
<stop offset="0.7229" stop-color="#1CA3E1"/>
<stop offset="0.9353" stop-color="#09AFA4"/>
<stop offset="0.9863" stop-color="#04B294"/>
</linearGradient>
<linearGradient id="paint17_linear_1596_4932" x1="0.0947364" y1="11.3099" x2="9.82523" y2="14.7856" gradientUnits="userSpaceOnUse">
<stop offset="0.0105809" stop-color="#4909C6"/>
<stop offset="0.2483" stop-color="#4C43F7"/>
<stop offset="0.2875" stop-color="#4D4DFF"/>
<stop offset="0.4004" stop-color="#4165FD"/>
<stop offset="0.6219" stop-color="#239EF9"/>
<stop offset="0.7229" stop-color="#1CA3E1"/>
<stop offset="0.9353" stop-color="#09AFA4"/>
<stop offset="0.9863" stop-color="#04B294"/>
</linearGradient>
<linearGradient id="paint18_linear_1596_4932" x1="0.222106" y1="13.958" x2="11.729" y2="15.0484" gradientUnits="userSpaceOnUse">
<stop offset="0.0105809" stop-color="#4909C6"/>
<stop offset="0.2483" stop-color="#4C43F7"/>
<stop offset="0.2875" stop-color="#4D4DFF"/>
<stop offset="0.4004" stop-color="#4165FD"/>
<stop offset="0.6219" stop-color="#239EF9"/>
<stop offset="0.7229" stop-color="#1CA3E1"/>
<stop offset="0.9353" stop-color="#09AFA4"/>
<stop offset="0.9863" stop-color="#04B294"/>
</linearGradient>
<linearGradient id="paint19_linear_1596_4932" x1="0.186647" y1="14.3322" x2="11.6935" y2="15.4227" gradientUnits="userSpaceOnUse">
<stop offset="0.0105809" stop-color="#4909C6"/>
<stop offset="0.2483" stop-color="#4C43F7"/>
<stop offset="0.2875" stop-color="#4D4DFF"/>
<stop offset="0.4004" stop-color="#4165FD"/>
<stop offset="0.6219" stop-color="#239EF9"/>
<stop offset="0.7229" stop-color="#1CA3E1"/>
<stop offset="0.9353" stop-color="#09AFA4"/>
<stop offset="0.9863" stop-color="#04B294"/>
</linearGradient>
<linearGradient id="paint20_linear_1596_4932" x1="0.273554" y1="13.4127" x2="11.7805" y2="14.5031" gradientUnits="userSpaceOnUse">
<stop offset="0.0105809" stop-color="#4909C6"/>
<stop offset="0.2483" stop-color="#4C43F7"/>
<stop offset="0.2875" stop-color="#4D4DFF"/>
<stop offset="0.4004" stop-color="#4165FD"/>
<stop offset="0.6219" stop-color="#239EF9"/>
<stop offset="0.7229" stop-color="#1CA3E1"/>
<stop offset="0.9353" stop-color="#09AFA4"/>
<stop offset="0.9863" stop-color="#04B294"/>
</linearGradient>
<linearGradient id="paint21_linear_1596_4932" x1="15.1381" y1="10.0283" x2="18.4116" y2="17.559" gradientUnits="userSpaceOnUse">
<stop stop-color="#200A56"/>
<stop offset="0.0745228" stop-color="#350990"/>
<stop offset="0.14" stop-color="#4909C6"/>
<stop offset="0.2666" stop-color="#4C43F7"/>
<stop offset="0.2875" stop-color="#4D4DFF"/>
<stop offset="0.4004" stop-color="#4165FD"/>
<stop offset="0.6219" stop-color="#239EF9"/>
<stop offset="0.7229" stop-color="#1CA3E1"/>
<stop offset="0.9353" stop-color="#09AFA4"/>
<stop offset="0.9863" stop-color="#04B294"/>
</linearGradient>
<linearGradient id="paint22_linear_1596_4932" x1="22.3597" y1="11.4466" x2="9.79712" y2="8.97515" gradientUnits="userSpaceOnUse">
<stop stop-color="#4D4DFF"/>
<stop offset="0.0634976" stop-color="#4165FD"/>
<stop offset="0.1881" stop-color="#239EF9"/>
<stop offset="0.2589" stop-color="#1CA2E3"/>
<stop offset="0.3733" stop-color="#14A8C7"/>
<stop offset="0.4957" stop-color="#0DACB0"/>
<stop offset="0.6285" stop-color="#08B0A0"/>
<stop offset="0.7792" stop-color="#05B197"/>
<stop offset="0.9863" stop-color="#04B294"/>
</linearGradient>
<linearGradient id="paint23_linear_1596_4932" x1="14.3991" y1="11.2559" x2="20.459" y2="1.99158" gradientUnits="userSpaceOnUse">
<stop offset="0.0105809" stop-color="#4909C6"/>
<stop offset="0.2483" stop-color="#4C43F7"/>
<stop offset="0.2875" stop-color="#4D4DFF"/>
<stop offset="0.4004" stop-color="#4165FD"/>
<stop offset="0.6219" stop-color="#239EF9"/>
<stop offset="0.7229" stop-color="#1CA3E1"/>
<stop offset="0.9353" stop-color="#09AFA4"/>
<stop offset="0.9863" stop-color="#04B294"/>
</linearGradient>
<linearGradient id="paint24_linear_1596_4932" x1="6.79369" y1="15.9601" x2="24.811" y2="-0.293977" gradientUnits="userSpaceOnUse">
<stop offset="0.0105809" stop-color="#4909C6"/>
<stop offset="0.2483" stop-color="#4C43F7"/>
<stop offset="0.2875" stop-color="#4D4DFF"/>
<stop offset="0.4004" stop-color="#4165FD"/>
<stop offset="0.6219" stop-color="#239EF9"/>
<stop offset="0.7229" stop-color="#1CA3E1"/>
<stop offset="0.9353" stop-color="#09AFA4"/>
<stop offset="0.9863" stop-color="#04B294"/>
</linearGradient>
<linearGradient id="paint25_linear_1596_4932" x1="1.34531" y1="7.80889" x2="11.0758" y2="11.2846" gradientUnits="userSpaceOnUse">
<stop offset="0.0105809" stop-color="#4909C6"/>
<stop offset="0.2483" stop-color="#4C43F7"/>
<stop offset="0.2875" stop-color="#4D4DFF"/>
<stop offset="0.4004" stop-color="#4165FD"/>
<stop offset="0.6219" stop-color="#239EF9"/>
<stop offset="0.7229" stop-color="#1CA3E1"/>
<stop offset="0.9353" stop-color="#09AFA4"/>
<stop offset="0.9863" stop-color="#04B294"/>
</linearGradient>
<linearGradient id="paint26_linear_1596_4932" x1="19.3375" y1="12.5349" x2="15.4392" y2="6.00424" gradientUnits="userSpaceOnUse">
<stop offset="0.0105809" stop-color="#4909C6"/>
<stop offset="0.2483" stop-color="#4C43F7"/>
<stop offset="0.2875" stop-color="#4D4DFF"/>
<stop offset="0.4004" stop-color="#4165FD"/>
<stop offset="0.6219" stop-color="#239EF9"/>
<stop offset="0.7229" stop-color="#1CA3E1"/>
<stop offset="0.9353" stop-color="#09AFA4"/>
<stop offset="0.9863" stop-color="#04B294"/>
</linearGradient>
<linearGradient id="paint27_linear_1596_4932" x1="19.0827" y1="12.6863" x2="15.1857" y2="6.15782" gradientUnits="userSpaceOnUse">
<stop offset="0.0105809" stop-color="#4909C6"/>
<stop offset="0.2483" stop-color="#4C43F7"/>
<stop offset="0.2875" stop-color="#4D4DFF"/>
<stop offset="0.4004" stop-color="#4165FD"/>
<stop offset="0.6219" stop-color="#239EF9"/>
<stop offset="0.7229" stop-color="#1CA3E1"/>
<stop offset="0.9353" stop-color="#09AFA4"/>
<stop offset="0.9863" stop-color="#04B294"/>
</linearGradient>
<linearGradient id="paint28_linear_1596_4932" x1="19.1528" y1="12.6438" x2="15.2597" y2="6.12194" gradientUnits="userSpaceOnUse">
<stop offset="0.0105809" stop-color="#4909C6"/>
<stop offset="0.2483" stop-color="#4C43F7"/>
<stop offset="0.2875" stop-color="#4D4DFF"/>
<stop offset="0.4004" stop-color="#4165FD"/>
<stop offset="0.6219" stop-color="#239EF9"/>
<stop offset="0.7229" stop-color="#1CA3E1"/>
<stop offset="0.9353" stop-color="#09AFA4"/>
<stop offset="0.9863" stop-color="#04B294"/>
</linearGradient>
<linearGradient id="paint29_linear_1596_4932" x1="18.7835" y1="11.4858" x2="18.9661" y2="12.487" gradientUnits="userSpaceOnUse">
<stop offset="0.0105809" stop-color="#4909C6"/>
<stop offset="0.2483" stop-color="#4C43F7"/>
<stop offset="0.2875" stop-color="#4D4DFF"/>
<stop offset="0.4004" stop-color="#4165FD"/>
<stop offset="0.6219" stop-color="#239EF9"/>
<stop offset="0.7229" stop-color="#1CA3E1"/>
<stop offset="0.9353" stop-color="#09AFA4"/>
<stop offset="0.9863" stop-color="#04B294"/>
</linearGradient>
<linearGradient id="paint30_linear_1596_4932" x1="18.8649" y1="12.1182" x2="19.0199" y2="12.9681" gradientUnits="userSpaceOnUse">
<stop offset="0.0105809" stop-color="#4909C6"/>
<stop offset="0.2483" stop-color="#4C43F7"/>
<stop offset="0.2875" stop-color="#4D4DFF"/>
<stop offset="0.4004" stop-color="#4165FD"/>
<stop offset="0.6219" stop-color="#239EF9"/>
<stop offset="0.7229" stop-color="#1CA3E1"/>
<stop offset="0.9353" stop-color="#09AFA4"/>
<stop offset="0.9863" stop-color="#04B294"/>
</linearGradient>
<clipPath id="clip0_1596_4932">
<rect width="22" height="22" fill="white"/>
</clipPath>
</defs>
</svg>
