<svg width="20" height="20" viewBox="0 0 20 20" fill="none" xmlns="http://www.w3.org/2000/svg">
<path d="M10 2C8.41775 2 6.87103 2.46919 5.55544 3.34824C4.23985 4.22729 3.21447 5.47672 2.60897 6.93853C2.00347 8.40034 1.84504 10.0089 2.15372 11.5607C2.4624 13.1126 3.22433 14.538 4.34315 15.6569C5.46197 16.7757 6.88743 17.5376 8.43928 17.8463C9.99113 18.155 11.5997 17.9965 13.0615 17.391C14.5233 16.7855 15.7727 15.7602 16.6518 14.4446C17.5308 13.129 18 11.5822 18 10C18 7.87827 17.1571 5.84344 15.6569 4.34315C14.1566 2.84285 12.1217 2 10 2ZM9.3 5.35C9.3 5.16435 9.37375 4.9863 9.50503 4.85502C9.6363 4.72375 9.81435 4.65 10 4.65C10.1857 4.65 10.3637 4.72375 10.495 4.85502C10.6263 4.9863 10.7 5.16435 10.7 5.35V11.35C10.7 11.5356 10.6263 11.7137 10.495 11.845C10.3637 11.9762 10.1857 12.05 10 12.05C9.81435 12.05 9.6363 11.9762 9.50503 11.845C9.37375 11.7137 9.3 11.5356 9.3 11.35V5.35ZM10 15.25C9.822 15.25 9.64799 15.1972 9.49999 15.0983C9.35198 14.9994 9.23663 14.8589 9.16851 14.6944C9.10039 14.53 9.08257 14.349 9.1173 14.1744C9.15202 13.9998 9.23774 13.8395 9.36361 13.7136C9.48947 13.5877 9.64984 13.502 9.82442 13.4673C9.999 13.4326 10.18 13.4504 10.3444 13.5185C10.5089 13.5866 10.6494 13.702 10.7483 13.85C10.8472 13.998 10.9 14.172 10.9 14.35C10.9 14.5887 10.8052 14.8176 10.6364 14.9864C10.4676 15.1552 10.2387 15.25 10 15.25Z" fill="#FF3D00"/>
</svg>