<svg width="31" height="30" viewBox="0 0 31 30" fill="none" xmlns="http://www.w3.org/2000/svg">
<path d="M30.5 15.3597C30.5 14.3467 30.4 13.3009 30.2333 12.3206H15.796V18.1048H24.0649C23.7315 19.9675 22.6312 21.6014 20.9974 22.6472L25.9321 26.4053C28.8329 23.7582 30.5 19.9021 30.5 15.3597Z" fill="#4280EF"/>
<path d="M15.7957 30C19.9302 30 23.3978 28.6601 25.9318 26.3726L20.9972 22.6472C19.6301 23.5622 17.863 24.085 15.7957 24.085C11.7946 24.085 8.42706 21.438 7.19339 17.9087L2.12534 21.7321C4.72605 26.7974 9.99416 30 15.7957 30Z" fill="#34A353"/>
<path d="M7.19349 17.876C6.55999 16.0133 6.55999 13.9872 7.19349 12.1244L2.12544 8.26831C-0.0418147 12.5166 -0.0418147 17.5165 2.12544 21.7321L7.19349 17.876Z" fill="#F6B704"/>
<path d="M15.7957 5.94817C17.963 5.91549 20.0969 6.73247 21.664 8.20303L26.0319 3.88938C23.2644 1.34041 19.5968 -0.0321088 15.7957 0.000570345C9.99416 0.000570345 4.72605 3.20312 2.12534 8.26839L7.19339 12.1245C8.42706 8.5625 11.7947 5.94817 15.7957 5.94817Z" fill="#E54335"/>
</svg>
