<svg width="22" height="22" viewBox="0 0 22 22" fill="none" xmlns="http://www.w3.org/2000/svg">
<path d="M22 0H0V22H22V0Z" fill="#2B6DA0"/>
<path fill-rule="evenodd" clip-rule="evenodd" d="M10.6201 4.24063H9.86305L7.14132 9.37353L4.41805 4.24063H2.67638V4.94342H3.65798V11.3822H2.68249V12.085H5.42716V11.3822H4.48221V6.53003C4.48359 6.3136 4.47213 6.09727 4.44784 5.88222H4.48221C4.53006 6.08609 4.58946 6.28707 4.66018 6.4842L6.68221 10.3296H7.59888L9.61862 6.48264C9.68975 6.28606 9.7497 6.08563 9.7981 5.88222H9.83096C9.80708 6.09626 9.79608 6.31159 9.7981 6.52696V11.3822H8.8532V12.085H11.5986V11.3822H10.6201V4.24063ZM4.48107 15.1317L4.48043 15.1315C3.99485 14.9406 3.57508 14.7756 3.57508 14.4159C3.57508 13.8896 4.14722 13.8484 4.32216 13.8484C4.95758 13.8484 5.29852 14.1951 5.30961 14.2064L5.30987 14.2066L5.38628 14.293L5.73763 13.7002L5.69487 13.652C5.67732 13.6322 5.24951 13.1601 4.33513 13.1601C3.43758 13.1601 2.80737 13.6765 2.80737 14.4159C2.80737 15.2326 3.5257 15.5192 4.16087 15.7727L4.16253 15.7734L4.16477 15.7743C4.65039 15.9679 5.07003 16.1352 5.07003 16.4914C5.07003 16.9222 4.66284 17.0758 4.31451 17.0758C3.87109 17.0728 3.44581 16.8994 3.12667 16.5915L3.05487 16.5151L2.64008 17.0682L2.68667 17.1216C2.70959 17.1484 3.25959 17.7656 4.30612 17.7656C5.18919 17.7656 5.83008 17.2309 5.83008 16.493C5.83008 15.6657 5.10972 15.3822 4.47341 15.1332L4.48107 15.1317ZM6.70154 13.6605C6.72519 13.6398 7.2905 13.1601 8.2591 13.1601H8.25988C9.33238 13.1601 9.92285 13.7674 9.92285 14.8697V17.6647H9.20249V17.088C9.05476 17.3004 8.85718 17.4733 8.627 17.5914C8.39683 17.7096 8.14117 17.7694 7.88249 17.7656C7.12624 17.7656 6.36238 17.305 6.36238 16.4257C6.36238 14.8758 8.37061 14.8758 9.03061 14.8758H9.17499V14.8544C9.17499 14.1784 8.86103 13.8499 8.21556 13.8499C7.80704 13.8571 7.41081 13.9905 7.08118 14.2318L7.00478 14.2953L6.64499 13.7093L6.70154 13.6605ZM9.17654 15.6176V15.5205H9.02144C8.13764 15.5205 7.12394 15.6191 7.12394 16.3906C7.12394 16.7328 7.38978 17.101 7.97415 17.101C8.693 17.101 9.17654 16.3341 9.17654 15.6176ZM12.3561 16.4178C12.3325 16.4795 12.31 16.5479 12.2896 16.61L12.2797 16.6401C12.2583 16.5637 12.2346 16.4873 12.2094 16.4186L11.0185 13.2622H10.231L11.9115 17.6629H12.6502L14.3208 13.2622H13.5379L12.3561 16.4178ZM14.4353 15.4669C14.4353 14.1087 15.3275 13.1607 16.604 13.1607L16.6001 13.1591C17.8782 13.1591 18.4503 14.1828 18.4503 15.1964C18.4503 15.28 18.44 15.4143 18.4355 15.4731L18.4355 15.4732L18.4346 15.485L18.4335 15.502L18.4266 15.5784H15.1992C15.2511 16.337 15.7385 17.0749 16.743 17.0749C17.1959 17.0655 17.6301 16.8924 17.9652 16.5875L18.0454 16.5111L18.3991 17.1047L18.3487 17.1535C17.8988 17.5449 17.3233 17.7618 16.727 17.7647C15.4009 17.7647 14.4353 16.7983 14.4353 15.4669ZM16.5834 13.8138C15.8943 13.8138 15.3863 14.2393 15.2382 14.9322H17.6902C17.6222 14.1102 17.0814 13.8138 16.5834 13.8138ZM17.6452 8.16399C17.6452 9.59779 16.7438 10.8773 15.6591 11.1844C15.2596 11.3372 14.8372 11.3845 14.3254 11.3845H12.9137V4.94342H14.3223C14.8341 4.94342 15.2336 4.96633 15.6675 5.12139C16.8134 5.4743 17.6452 6.71946 17.6452 8.16399ZM18.4542 8.16399C18.4542 6.25425 17.4756 4.89607 15.9754 4.42931C15.4529 4.27654 14.964 4.24063 14.3086 4.24063H11.0322V4.94342H12.0108V12.0873H14.32C14.9418 12.0873 15.4658 12.043 15.9754 11.8765C17.5093 11.3868 18.4542 10.0645 18.4542 8.16399ZM19.0357 17.0863C18.9797 17.0509 18.9144 17.0328 18.8482 17.0347C18.7612 17.0359 18.6782 17.0715 18.6175 17.1339C18.5568 17.1961 18.5233 17.28 18.5243 17.367C18.5242 17.4332 18.5438 17.4981 18.5808 17.5531C18.6177 17.6082 18.6702 17.6509 18.7316 17.676C18.793 17.701 18.8604 17.7072 18.9253 17.6937C18.9902 17.6801 19.0496 17.6476 19.0958 17.6001C19.1421 17.5526 19.1732 17.4924 19.185 17.4272C19.1969 17.362 19.189 17.2947 19.1624 17.234C19.1358 17.1732 19.0917 17.1218 19.0357 17.0863ZM18.9967 17.5913C18.9519 17.6177 18.9001 17.63 18.8482 17.6267V17.6251C18.8153 17.6242 18.7829 17.6167 18.7529 17.6032C18.7228 17.5897 18.6958 17.5704 18.6732 17.5464C18.6507 17.5224 18.6331 17.4942 18.6214 17.4634C18.6097 17.4326 18.6042 17.3999 18.6053 17.367C18.6054 17.3149 18.6211 17.2641 18.6505 17.2211C18.6798 17.1781 18.7214 17.1449 18.7699 17.1258C18.8183 17.1068 18.8714 17.1027 18.9222 17.1141C18.973 17.1256 19.0191 17.1521 19.0547 17.1901C19.0902 17.2281 19.1135 17.2759 19.1216 17.3274C19.1296 17.3788 19.122 17.4315 19.0998 17.4786C19.0775 17.5256 19.0416 17.5649 18.9967 17.5913ZM18.8726 17.1989H18.7343L18.7359 17.5297H18.8123V17.4074H18.8558L18.9124 17.5297H18.9972L18.9345 17.4097C18.9315 17.4029 18.9277 17.3965 18.923 17.3907C18.9409 17.3847 18.9564 17.373 18.967 17.3574C18.9776 17.3418 18.9828 17.3231 18.9818 17.3043C18.9824 17.29 18.98 17.2757 18.9746 17.2624C18.9693 17.2491 18.9612 17.2371 18.9509 17.2271C18.9406 17.2171 18.9283 17.2095 18.9148 17.2046C18.9013 17.1998 18.8869 17.1978 18.8726 17.1989ZM18.8744 17.3489C18.8682 17.3512 18.8616 17.3522 18.8551 17.3517H18.8123V17.2532H18.8558C18.8623 17.2525 18.8689 17.2533 18.875 17.2556C18.8811 17.2579 18.8867 17.2615 18.8913 17.2662C18.8958 17.2709 18.8993 17.2765 18.9013 17.2828C18.9034 17.289 18.904 17.2956 18.9032 17.302C18.9039 17.3086 18.9031 17.3152 18.9009 17.3215C18.8988 17.3277 18.8953 17.3334 18.8907 17.3381C18.8861 17.3429 18.8806 17.3465 18.8744 17.3489Z" fill="white"/>
</svg>
