<svg width="22" height="22" viewBox="0 0 22 22" fill="none" xmlns="http://www.w3.org/2000/svg">
<circle cx="11" cy="11" r="11" fill="url(#paint0_linear_1562_3993)"/>
<circle cx="11.0002" cy="11.0001" r="9.30769" fill="url(#paint1_linear_1562_3993)"/>
<ellipse cx="10.9997" cy="10.9998" rx="7.82692" ry="7.82692" fill="#1D154A"/>
<ellipse cx="11.0002" cy="11" rx="6.34615" ry="6.34616" fill="url(#paint2_linear_1562_3993)"/>
<ellipse cx="11.0001" cy="10.9997" rx="4.86538" ry="4.86539" fill="url(#paint3_linear_1562_3993)"/>
<ellipse cx="11.0003" cy="11.0002" rx="3.17308" ry="3.17308" fill="#1D154A"/>
<path d="M10.7836 9.77946C10.8682 9.61711 11.1314 9.61711 11.216 9.77946C11.3252 9.98913 11.4674 10.223 11.6221 10.3777C11.7768 10.5324 12.0106 10.6745 12.2203 10.7837C12.3826 10.8683 12.3826 11.1315 12.2203 11.2161C12.0106 11.3254 11.7768 11.4675 11.6221 11.6222C11.4674 11.7769 11.3252 12.0107 11.216 12.2204C11.1314 12.3827 10.8682 12.3827 10.7836 12.2204C10.6744 12.0107 10.5322 11.7769 10.3775 11.6222C10.2229 11.4675 9.989 11.3254 9.77934 11.2161C9.61699 11.1315 9.61699 10.8683 9.77934 10.7837C9.989 10.6745 10.2229 10.5324 10.3775 10.3777C10.5322 10.223 10.6744 9.98913 10.7836 9.77946Z" fill="white"/>
<defs>
<linearGradient id="paint0_linear_1562_3993" x1="0.049476" y1="11" x2="22.0495" y2="11" gradientUnits="userSpaceOnUse">
<stop stop-color="#02FCF1"/>
<stop offset="1" stop-color="#A02BFE"/>
</linearGradient>
<linearGradient id="paint1_linear_1562_3993" x1="1.6925" y1="11.0001" x2="20.3079" y2="11.0001" gradientUnits="userSpaceOnUse">
<stop stop-color="#15E4F3"/>
<stop offset="1" stop-color="#A22AFF"/>
</linearGradient>
<linearGradient id="paint2_linear_1562_3993" x1="1.91618" y1="11" x2="20.037" y2="11" gradientUnits="userSpaceOnUse">
<stop stop-color="#F8D85C"/>
<stop offset="1" stop-color="#FF1C8B"/>
</linearGradient>
<linearGradient id="paint3_linear_1562_3993" x1="6.13467" y1="10.9997" x2="15.8654" y2="10.9997" gradientUnits="userSpaceOnUse">
<stop stop-color="#F8D15D"/>
<stop offset="1" stop-color="#FF1C8B"/>
</linearGradient>
</defs>
</svg>
