<svg width="20" height="20" viewBox="0 0 20 20" fill="none" xmlns="http://www.w3.org/2000/svg">
<path d="M18.3083 15.275C18.3083 15.575 18.2417 15.8833 18.1 16.1833C17.9583 16.4833 17.775 16.7667 17.5333 17.0333C17.125 17.4833 16.675 17.8083 16.1667 18.0167C15.6667 18.225 15.125 18.3333 14.5417 18.3333C13.6917 18.3333 12.7833 18.1333 11.825 17.725C10.8667 17.3167 9.90834 16.7667 8.95834 16.075C8.00001 15.375 7.09167 14.6 6.22501 13.7417C5.36667 12.875 4.59167 11.9667 3.90001 11.0167C3.21667 10.0667 2.66667 9.11667 2.26667 8.175C1.86667 7.225 1.66667 6.31667 1.66667 5.45C1.66667 4.88333 1.76667 4.34167 1.96667 3.84167C2.16667 3.33333 2.48334 2.86667 2.92501 2.45C3.45834 1.925 4.04167 1.66667 4.65834 1.66667C4.89167 1.66667 5.12501 1.71667 5.33334 1.81667C5.55001 1.91667 5.74167 2.06667 5.89167 2.28333L7.82501 5.00833C7.97501 5.21667 8.08334 5.40833 8.15834 5.59167C8.23334 5.76667 8.27501 5.94167 8.27501 6.1C8.27501 6.3 8.21667 6.5 8.10001 6.69167C7.99167 6.88333 7.83334 7.08333 7.63334 7.28333L7.00001 7.94167C6.90834 8.03333 6.86667 8.14167 6.86667 8.275C6.86667 8.34167 6.87501 8.4 6.89167 8.46667C6.91667 8.53333 6.94167 8.58333 6.95834 8.63333C7.10834 8.90833 7.36667 9.26667 7.73334 9.7C8.10834 10.1333 8.50834 10.575 8.94167 11.0167C9.39167 11.4583 9.82501 11.8667 10.2667 12.2417C10.7 12.6083 11.0583 12.8583 11.3417 13.0083C11.3833 13.025 11.4333 13.05 11.4917 13.075C11.5583 13.1 11.625 13.1083 11.7 13.1083C11.8417 13.1083 11.95 13.0583 12.0417 12.9667L12.675 12.3417C12.8833 12.1333 13.0833 11.975 13.275 11.875C13.4667 11.7583 13.6583 11.7 13.8667 11.7C14.025 11.7 14.1917 11.7333 14.375 11.8083C14.5583 11.8833 14.75 11.9917 14.9583 12.1333L17.7167 14.0917C17.9333 14.2417 18.0833 14.4167 18.175 14.625C18.2583 14.8333 18.3083 15.0417 18.3083 15.275Z" stroke="#30353B" stroke-width="1.5" stroke-miterlimit="10"/>
</svg>