<svg width="20" height="20" viewBox="0 0 20 20" fill="none" xmlns="http://www.w3.org/2000/svg">
<path fill-rule="evenodd" clip-rule="evenodd" d="M3.75 8.5C4.7165 8.5 5.5 9.2835 5.5 10.25C5.5 11.2165 4.7165 12 3.75 12C2.7835 12 2 11.2165 2 10.25C2 9.2835 2.7835 8.5 3.75 8.5ZM9.75 8.5C10.7165 8.5 11.5 9.2835 11.5 10.25C11.5 11.2165 10.7165 12 9.75 12C8.7835 12 8 11.2165 8 10.25C8 9.2835 8.7835 8.5 9.75 8.5ZM17.5 10.25C17.5 9.2835 16.7165 8.5 15.75 8.5C14.7835 8.5 14 9.2835 14 10.25C14 11.2165 14.7835 12 15.75 12C16.7165 12 17.5 11.2165 17.5 10.25Z" fill="#30353B"/>
</svg>