<svg width="22" height="22" viewBox="0 0 22 22" fill="none" xmlns="http://www.w3.org/2000/svg">
<g clip-path="url(#clip0_1596_711)">
<path d="M19.4928 6.13068L17.9977 6.13068L15.9324 9.34685L14.7349 7.4857L13.9881 8.64819L15.9324 11.6733L19.4928 6.13068Z" fill="#F05523"/>
<path d="M22 6.13068L20.5049 6.13068L15.9323 13.2996L13.4615 9.50583L12.7147 10.6698L15.9308 15.6275L22 6.13068Z" fill="#008DA8"/>
<path d="M11.2577 15.6025L11.2577 14.7682L8.80286 14.7682L8.80286 12.872L11.2577 12.872L11.2577 12.0348L8.80286 12.0348L8.80286 10.1955L11.2577 10.1955L11.2577 9.3612L7.89271 9.3612L7.89271 15.6025L11.2577 15.6025ZM2.01171 14.7477L2.01171 11.0838L3.76201 11.0838C5.12724 11.0838 6.04031 11.8233 6.04031 12.8968C6.04031 14.262 4.95221 14.7477 3.76201 14.7477L2.01171 14.7477ZM2.01171 10.2261L2.01171 7.01726L3.40174 7.01726C5.11557 7.01726 5.51668 7.93617 5.51668 8.63775C5.51668 9.18617 5.25414 10.2334 3.47467 10.2334L2.01171 10.2261ZM3.83931 15.6025C6.25472 15.6025 6.96797 14.1862 6.96797 12.8968C6.97564 12.3995 6.8328 11.9115 6.55818 11.4969C6.28357 11.0822 5.89002 10.7603 5.42917 10.5733C6.16721 9.97235 6.44288 9.44872 6.44288 8.67713C6.44288 7.24043 5.40437 6.15524 3.463 6.15524L1.08551 6.15524L1.08551 15.6025L3.83931 15.6025Z" fill="#707272" stroke="#707272" stroke-miterlimit="10"/>
</g>
<defs>
<clipPath id="clip0_1596_711">
<rect width="22" height="22" fill="white"/>
</clipPath>
</defs>
</svg>
